<svg width="1381" height="172" viewBox="0 0 1381 172" fill="none" xmlns="http://www.w3.org/2000/svg">
<path d="M475.96 71.23C476.1 71.19 476.24 71.13 476.38 71.07C477.49 70.53 478.03 69.72 478.96 69.65C479.63 69.57 480.26 69.69 480.98 69.73C483.55 70.01 486.15 68.18 488.76 69.5C490.23 70.32 491.86 71.2 493.56 71.74" fill="white"/>
<path d="M1380.76 17.14V54.72L1380.7 54.76C1379.32 56.41 1377.72 54.79 1376.29 55.18C1372.64 56.17 1374.2 56.14 1370.48 56.26C1362.9 56.51 1353.08 61.42 1346.07 61.66C1335.55 62.01 1331.74 61.26 1321.24 64.51C1314.5 66.6 1315.27 64.17 1310.12 62.3C1305.84 60.74 1297.53 64.9 1292.44 64.69C1287.78 64.49 1283.65 58.96 1279.63 58.19C1276.16 57.52 1270.46 59.5 1266.2 58.67C1261.73 57.8 1257.3 51.49 1251.59 51.68C1249.35 51.75 1247.91 53.34 1246.34 53.55C1238.94 54.58 1228.48 54.38 1221.81 55.8C1220.08 56.17 1219.07 58.13 1218.15 58.3C1216.55 58.6 1213.98 57.23 1211.62 57.82C1206.88 59.02 1201.92 61.89 1196.3 61.86C1193.99 61.85 1190.91 59.36 1188.44 60.12C1186.4 60.75 1183.99 64.23 1181.45 64.3C1179.95 64.34 1179.04 61.74 1177.4 61.8C1175.72 61.86 1168.74 66.78 1166.32 67.53C1159.17 69.73 1154 64.58 1146.91 65.84C1142.97 66.55 1135.8 73.37 1132.9 73.57C1132.55 73.59 1126.85 71.39 1126.26 71.08C1125.52 70.69 1125.56 69.22 1124.81 68.85C1115.72 64.35 1113.14 71.88 1105.45 70.69C1100 69.85 1095.01 64.17 1091.08 63.39C1087.61 62.7 1081.06 64.67 1076.46 63.53C1072.91 62.65 1068.37 57.15 1063.92 56.69C1058.98 56.19 1052.46 63.27 1046.99 62.58C1043.2 62.1 1042.57 61.77 1038.42 61.81C1036.08 61.83 1033.98 60.55 1031.55 61.76L1018.79 47.85C1021.69 48.66 1024.48 48.01 1027.33 48.32C1029.04 48.51 1030.45 50.01 1031.55 50.1C1032.81 50.21 1033.95 48.52 1035.42 48.32C1040.31 47.66 1045.54 47.58 1050.37 48.32L1050.89 45.28L1063.87 46.29C1063.2 39.47 1070.52 44.52 1073.89 42.81C1075.11 42.2 1075.74 39.91 1076.98 38.88C1080.71 35.82 1088.67 28.37 1092.87 27.65C1095.93 27.12 1096.43 28.95 1097.95 28.83C1100.19 28.65 1103.79 26.32 1106.42 26.41C1108.87 26.49 1111.54 29.48 1113.24 29.13C1114.36 28.9 1115.2 26.84 1116.61 26.43C1118.6 25.83 1120.49 27.1 1122.02 26.78C1128.92 25.32 1137.43 13.02 1147.04 9.24C1148.46 8.68 1149.9 8.3 1151.37 8.18C1153.28 8.02 1155.54 9.12 1156.47 8.99C1157.43 8.85 1157.65 6.82 1158.61 6.25C1166.99 1.27 1191.15 -0.970002 1201.27 0.399998C1209.24 1.48 1212.92 4.9 1218.66 9.24C1219.26 9.69 1219.88 10.16 1220.54 10.63C1227.31 15.53 1232.3 16.68 1238.58 20.59C1239.59 21.21 1241 24.68 1243.39 24.88C1246.31 25.12 1256.6 21.06 1262.39 21.21C1271.08 21.43 1272.17 29.86 1279.34 21.22C1280.23 20.15 1280.43 18.15 1281.11 17.52C1282.27 16.44 1284.66 16.84 1285.64 16.04C1286.52 15.31 1286.37 12.91 1288.53 11.34C1289.58 10.58 1293.5 9.86 1297.01 9.24C1299.2 8.86 1301.24 8.51 1302.32 8.22C1313.52 5.24 1317.29 2.61 1330.13 5.54C1333.54 6.32 1336.73 7.83 1340 9.24C1342.21 10.19 1344.46 11.1 1346.86 11.71C1353.04 13.28 1364.41 16.68 1370.34 16.26C1372.14 16.13 1373.56 14.36 1375.22 14.49C1376.71 14.61 1378.68 16.49 1380.76 17.14Z" fill="white"/>
<path d="M1380.76 54.72V125.17C1372.7 122.57 1365.25 114.42 1357.49 113.13C1353.97 112.55 1352.52 114.68 1349.94 114.53C1347.19 114.37 1343.58 110.99 1341.03 110.87C1339.03 110.78 1337.6 112.83 1335.8 112.64C1334.08 112.46 1330.4 108 1326.92 107.87C1324.95 107.8 1323.61 109.74 1321.78 109.55C1320.66 109.43 1319.18 107.9 1317.21 107.76C1310.64 107.26 1300.67 108.65 1295 107.5C1286.95 105.87 1285.58 95.51 1274.98 101.73C1268.26 90.3 1263.69 96.6 1253.72 96.78C1246.68 96.91 1246.98 94.01 1236.94 95.79C1227.29 97.5 1230.7 98.81 1226.32 102.27C1220.13 107.17 1211.26 93.39 1205.49 92.89C1197.76 92.22 1198.88 96.45 1195.55 97.71C1191.73 99.14 1174.63 100.19 1171.65 98.42C1170.2 97.56 1169.4 94.97 1166.98 94.18C1164.97 93.52 1162.02 94.88 1159.38 94.72C1148.92 94.07 1147.3 84.26 1140.81 83.68C1136.77 83.31 1135.42 85.25 1133.61 85.41C1124.42 86.23 1112.36 85.83 1102.86 86.75C1100.69 86.97 1098.95 88.75 1097.15 88.72C1095.35 88.7 1093.89 87.06 1092.93 87.06C1091.97 87.06 1090.52 88.69 1088.7 88.72C1084.57 88.78 1077.66 84.47 1075.58 83.75C1068.87 81.42 1063.47 79.11 1056.58 82.69C1054.95 83.54 1054.6 85.24 1052.7 86.19C1049.55 87.75 1037.67 93.08 1034.76 93.54C1022.98 95.39 1003.88 87.88 991.29 89.9C988.59 90.34 986.51 91.64 984.74 92.76C983.82 92.75 982.93 92.71 982.07 92.65C970.66 91.79 963.66 88.1 952.88 85.57C939.3 82.38 902.66 74.95 890.22 75.98C877.79 77.01 879.2 76.06 868.35 74.54C862.41 73.71 854 75.05 847.23 73.45C844.99 72.92 843.52 70.29 840.48 69.42C833.82 67.49 820.77 66.52 813.22 64.88C807.76 63.69 797.99 59.57 792.69 59.7C788.22 59.81 781.98 63.48 778.16 63.75C775.57 63.93 774.37 62.2 772.48 62.11C757.16 61.37 743.4 68.68 731.14 75.27C718.4 82.11 705.65 77.75 693.29 80.06C689.3 80.81 687.29 83.31 683.4 83.94C682.93 84.02 682.49 84.07 682.04 84.1H682.03C680.27 81.89 678.44 80.24 676.37 79.86C672.11 79.07 670.32 81.84 668.42 81.62C666.43 81.39 663.75 77.28 658.43 77.72C656.19 77.9 654.52 79.67 651.31 79.82C649.93 79.88 648.63 79.73 647.3 79.53C647.29 79.53 647.28 79.53 647.27 79.52C645.31 78.44 643.76 77.56 643.26 77.24C637.99 73.85 631.39 65.62 626.93 63.24C625.24 62.33 603.89 55.81 601.6 55.42C598.24 54.85 595.14 55.87 592.16 55.36C591.44 55.24 590.68 55.08 589.9 54.89C591.2 54.42 592.32 54.03 593.12 53.77C594.8 53.32 596.24 54.42 597.98 54.1C600.27 53.84 602.89 51.54 604.28 51.41C605.45 51.21 606.15 52.3 607.89 52.91C610.21 53.74 613.1 53.65 615.48 54.39C619.06 55.41 623.63 58.07 626.91 57.05C628.49 56.54 629.71 55.45 631.46 55.3C633.89 54.91 637.79 55.82 640.12 54.65C641.72 53.63 643.24 51.34 645 50.97C647.32 50.36 649.41 51.81 652.38 52.27C653.29 52.41 654.22 52.47 654.87 51.81C655.64 51.1 655.74 49.26 656.54 47.87C657.47 45.66 660.27 46.11 662.06 46.95C665.12 48.18 668.52 49.45 670.62 50.13C670.92 50.2 671.04 50.15 670.98 49.95C670.84 49.43 669.91 48.64 669.71 48.18C669.73 48.13 670 48.26 670.11 48.31C670.77 48.63 672.1 49.13 673.5 49C677.52 48.79 683.11 45.88 685.87 46.54C687.29 46.92 688.3 48.06 689.81 48.38C692.13 48.85 695.74 48.35 696.96 46.48C697.91 45.09 698.62 43.22 700.51 42.98C702.42 42.64 705.72 43.59 707.16 43.26C707.75 43.14 708.2 42.79 708.49 42.25C709.21 40.53 710.56 37.26 712.42 37.18C715.29 36.9 719.21 40.8 722.64 38.92C723.5 38.59 724.33 38.12 725.13 37.67C729.43 35.18 731.65 35.83 737.06 36.27C739.44 36.49 741.91 36.5 744.04 37.69C746.55 39.14 749.48 41.81 751.45 43.14C753.41 44.18 755.95 45.31 757.88 45.84C759.06 46.09 760.01 45.21 761.06 44.8C763.29 43.69 765.89 45.69 768.01 45.97C768.99 46.14 770.04 45.7 770.41 44.72C770.68 44.19 770.88 43.28 770.88 43.28C774.12 43.05 776.98 44.65 779.85 45.82C782.11 46.73 792.66 52.24 793.41 52.32C796.21 52.61 798.58 49.63 800.37 49.69C802.92 49.77 809.16 52.77 811.37 52.82C824.6 53.1 838.48 50.38 852.2 51.67C858.74 52.29 866.11 52.64 870.38 57.95C871.53 58.08 875.33 55.04 876.38 54.78C886.52 52.23 894.02 55.13 901.35 54.28C906.05 53.73 904.59 54.1 908.2 54.09C909.97 54.08 913.28 51.55 915.85 52.25L915.99 47.38C920.74 46.16 925.31 46.41 930.09 44.99C934.18 43.78 936.08 40.47 940.4 39.59L942.87 41.8L939.87 42.79C939.91 44.18 941.71 47.23 942.87 47.79C943.82 48.25 952.13 48.92 953.38 48.78C955.65 48.52 966.49 45.82 969.08 44.98C971.84 44.08 976.79 40.02 978.59 39.49C981.8 38.55 985.93 40 989.17 39.07C990.88 38.57 992.91 35.57 994.92 34.83C998.47 33.53 1003.82 34.6 1006.88 36.8C1009 38.33 1016.95 47.34 1018.79 47.85L1031.55 61.76C1033.98 60.55 1036.08 61.83 1038.42 61.81C1042.57 61.77 1043.2 62.1 1046.99 62.58C1052.46 63.27 1058.98 56.19 1063.92 56.69C1068.37 57.15 1072.91 62.65 1076.46 63.53C1081.06 64.67 1087.61 62.7 1091.08 63.39C1095.01 64.17 1100 69.85 1105.45 70.69C1113.14 71.88 1115.72 64.35 1124.81 68.85C1125.56 69.22 1125.52 70.69 1126.26 71.08C1126.85 71.39 1132.55 73.59 1132.9 73.57C1135.8 73.37 1142.97 66.55 1146.91 65.84C1154 64.58 1159.17 69.73 1166.32 67.53C1168.74 66.78 1175.72 61.86 1177.4 61.8C1179.04 61.74 1179.95 64.34 1181.45 64.3C1183.99 64.23 1186.4 60.75 1188.44 60.12C1190.91 59.36 1193.99 61.85 1196.3 61.86C1201.92 61.89 1206.88 59.02 1211.62 57.82C1213.98 57.23 1216.55 58.6 1218.15 58.3C1219.07 58.13 1220.08 56.17 1221.81 55.8C1228.48 54.38 1238.94 54.58 1246.34 53.55C1247.91 53.34 1249.35 51.75 1251.59 51.68C1257.3 51.49 1261.73 57.8 1266.2 58.67C1270.46 59.5 1276.16 57.52 1279.63 58.19C1283.65 58.96 1287.78 64.49 1292.44 64.69C1297.53 64.9 1305.84 60.74 1310.12 62.3C1315.27 64.17 1314.5 66.6 1321.24 64.51C1331.74 61.26 1335.55 62.01 1346.07 61.66C1353.08 61.42 1362.9 56.51 1370.48 56.26C1374.2 56.14 1372.64 56.17 1376.29 55.18C1377.72 54.79 1379.32 56.41 1380.7 54.76L1380.76 54.72Z" fill="#E4E5E3"/>
<path d="M301.51 51.87C298.85 50.52 294.91 52.17 292.67 51.52C292.04 51.39 291.91 50.85 291.5 50.48C289.15 49.99 285.38 50.97 282.63 49.79C281.4 49.42 280.5 47.88 279.4 47.34C277.48 46.66 276.41 48.98 275.59 50.26C275.12 50.73 273.88 49.68 272.09 49.16C270.3 48.71 268.75 47.94 266.97 47.7C263.92 47.72 261.92 48.5 260.03 45.22C259.69 44.78 259.32 44.5 258.82 44.56C258.28 44.69 257.85 45.03 257.51 45.47C256.48 46.64 256.24 48.84 255.59 49.02C255.17 49.19 254.57 48.63 253.8 47.89C253.04 47.15 252.09 46.38 251.3 46.27C250.24 46.09 249.23 46.74 247.8 47.33C245.96 47.98 243.71 48.75 241.83 48.32C241.06 48.11 240.47 47.65 239.66 47.7C238.75 47.68 237.22 48.56 235.47 48.76C234.63 48.87 233.78 48.88 232.95 48.84C231.5 48.77 229.99 48.74 228.99 47.65C228.8 47.43 228.25 47.05 227.92 47.19C227.19 47.31 226.05 48.61 225.06 48.44C224.6 48.37 224.19 48.08 223.88 47.73C221.19 43.8 221.77 43.03 216.51 44.49C213.22 45.44 210.59 44.6 207.7 43.36C206.97 43.13 206.12 43.03 205.48 43.5C205 43.84 204.85 44.41 204.48 44.81C204.11 45.21 203.44 43.85 202.68 44.43C202.26 44.75 201.96 45.23 201.59 45.63C197.6 49.58 191.15 40.39 186.79 42.06C184.86 42.25 183.77 44.41 182.09 44.88C181 45.01 179.79 44.1 178.78 43.74C176.82 42.93 175.65 43.83 173.34 44.13C169.45 44.79 164.12 43.86 161.37 45.24C160.31 45.98 160.46 48.14 159.7 49.35C158.59 51.05 153.06 50.98 151.34 49.64C150.72 49.18 150.62 49.16 150.63 50.06C150.63 50.48 150.61 51.04 150.46 51.57C150.21 52.28 149.98 52.77 149.19 53.12C143.79 54.46 138.4 48.27 134.82 48.24C133.31 48.27 131.16 47.86 129.93 48.73C129.27 49.22 129.17 50.53 128.03 51.7C125.99 53.63 122.49 54.99 119.99 55.65C118.05 56.06 116.83 53.36 115.72 52.76C115.52 52.68 115.35 52.68 115.19 52.81C114.6 53.19 114.35 55.34 113.83 55.84C113.7 55.97 113.56 56.03 113.38 56C112.42 55.81 110.06 53.26 108.6 52.19C107.3 51.29 105.7 51.63 104.39 50.7C103.1 49.84 100.98 48.92 99.7801 49.5C98.8101 49.9 98.3501 50.98 97.6401 51.71C95.7901 53.83 91.5201 51.6 90.2201 54.19C89.5901 55.38 89.7201 57.21 88.9401 58.25C87.8701 59.8 85.7201 58.35 84.4101 58.21C83.2101 58.09 82.0001 58.79 80.8201 59.02C78.6501 59.51 76.9001 58.69 75.0701 58.39C73.5201 58.14 71.8001 57.57 71.1101 58.22C70.9201 58.51 70.9701 58.93 70.6701 59.18C70.4501 59.38 70.0501 59.44 69.4301 59.42C66.2901 59.5 61.1201 58.21 57.5801 58.1C53.8901 58.32 50.3301 59.46 46.6301 59.58C43.3001 59.52 39.7001 59.25 36.9801 59.2C35.8001 59.25 34.7001 58.49 33.7301 58.33C32.8601 58.28 31.7901 58.96 30.9801 59.36C29.1301 60.25 26.9101 60.83 25.0401 60.98C23.6801 61.14 22.2801 61.25 20.9401 60.92C19.5001 60.61 18.6801 59.81 17.5701 59.84C16.0301 59.89 13.5801 61.88 11.5301 61.41C10.3701 61.28 9.36012 60.39 8.26012 60.2C8.18012 60.2 8.10012 60.21 8.04012 60.23C7.93012 60.29 7.93012 60.26 7.78012 60.47C7.43012 61.15 7.48012 61.85 6.88012 62.36C5.08012 63.38 2.41012 63.88 0.160117 63.99V12.93C5.57012 7.9 5.29012 15.6 9.79012 12.48C11.3701 11.39 12.6801 10.29 13.7901 9.24C20.2501 3.08 19.9101 -1.92 25.1701 0.729998C30.0201 3.18 28.8901 5.54 30.3401 9.24C30.8701 10.57 31.7301 12.08 33.3301 13.83C39.3701 20.43 39.7901 9.07 50.1301 9.78C57.8901 10.37 54.5601 20 62.2101 19.22C69.6601 18.34 70.9701 30.1 77.9501 28.66C83.3901 27.63 81.8401 21.93 87.1801 20.57C91.9401 19.26 99.0401 40.78 103.72 42.32C108.53 43.9 100.89 37.46 112.21 35.41C116.48 34.62 124.16 39.93 128.31 39.45C133.63 38.78 135.04 41.29 140.35 40.67C149.6 38.7 143.79 36.83 154.76 34.73C168.78 32.05 179.25 34.13 194.66 32.53C205.72 31.37 193.49 24.7 204.57 24.73C211.04 24.81 210.65 18.67 215.93 19.22C221.7 19.83 223.82 25.4 229.35 27.31C232.12 28.36 235.01 17.96 237.34 19.9C241.96 23.79 241.8 28.41 244.73 31.6C249.06 35.08 247.5 26.33 252.66 24.73C260.41 21.78 251.9 25.09 259.77 28.66C271.36 34.42 273.23 30.91 283.82 41.88L301.51 51.87Z" fill="#F4F4F4"/>
<path d="M1380.76 125.17V171.27H0.160117V104.12C0.860117 104.26 10.3401 106.13 15.4101 104.11C20.6901 102 22.8001 92.14 27.0101 92.86C31.2201 93.58 39.2901 94.17 39.2901 94.17C39.2901 94.17 53.0801 80.96 55.1301 83.06C57.1701 85.17 62.7201 79.55 70.1201 78.85C77.5201 78.15 75.8901 94.76 87.9301 94.17C99.9701 93.58 119.12 92.86 119.12 92.86L141.33 94.17C141.33 94.17 183.23 104.58 185.79 105.04C188.36 105.51 217.12 98.5 230.45 102C243.78 105.51 245.64 102.52 253.48 105.07C261.32 107.62 264.83 106.02 273.95 105.07C283.07 104.11 300.61 106.44 300.61 106.44L331.65 109.38C332.69 109.7 333.85 109.83 335.15 109.71C337.46 109.5 339.04 107.8 342.26 107.63C346.66 107.4 351.41 109.69 355.05 109.61C357.34 109.56 359.08 108.11 360.63 108.08C363.85 108.03 380.8 115.27 386.02 115.27C392.92 115.29 393.41 110.46 396.14 109.82C400.98 108.6 404.24 113.02 408.48 112.74C414.09 112.38 424.68 106.24 428.66 105.91C431.36 105.69 434.12 107.15 436.58 106.63C439.38 106.04 439.5 102.5 441.71 101.3C442.72 100.75 445.39 101.58 448.82 99.23C452.06 97 455.58 91.4 457.62 89.93C459.41 88.65 464.2 89.9 466.22 88.83C468.01 87.87 467.21 84.53 470.98 83.84C473.52 83.38 475.97 84.77 478.51 84.31C481.35 83.79 483.57 80.63 486.18 80.7C487.97 80.74 489.46 82.38 490.44 82.38C492.32 82.38 494.81 78.78 499.58 82.71L501.71 80.73C505.78 84.39 510.68 91.95 518.44 90.36C519.4 90.17 528.39 86.72 528.83 86.44C530.54 85.34 531.25 81.4 534.92 80.16C537.71 79.22 539.2 81.35 541.4 81.45C544.61 81.59 549.23 80.35 553.3 81.31C557.86 80.24 558.64 76.29 561.79 74.3C569.44 69.48 573.48 74.13 580.89 74.67C584.59 74.94 588.6 73.72 590.45 73.96C592.38 74.21 596.79 78.4 600.5 78.36C604.38 78.33 607.84 72.63 614.29 73.87C619.2 74.81 620.98 82.02 624.66 82.53C629.79 81.97 633.65 79.41 638.99 78.95C642.37 78.66 644.88 79.17 647.27 79.52C647.28 79.53 647.29 79.53 647.3 79.53C648.63 79.73 649.93 79.88 651.31 79.82C654.52 79.67 656.19 77.9 658.43 77.72C663.75 77.28 666.43 81.39 668.42 81.62C670.32 81.84 672.11 79.07 676.37 79.86C678.44 80.24 680.27 81.89 682.03 84.1H682.04C686.25 89.4 690.09 97.93 695.84 100.15C698.12 101.02 701.43 100.83 703.27 101.63C705.81 102.74 707.15 109.74 714.75 109.8C719.41 109.84 721.3 107.18 723.5 106.91C724.91 106.74 729.96 108.9 734.55 108.81C740.34 108.69 743.51 105.92 747.18 105.84C750.45 105.77 754.75 107.69 758.59 107.76C769.59 107.95 782.5 105.49 793.87 105.66C797.92 105.73 800.02 108.38 802.25 108.38C804.28 108.39 806.78 105.96 810.54 106.82C812.87 107.35 812.46 111.34 820.48 110.71C821.32 110.65 835.17 107.36 836.47 106.96C857.69 100.35 856.89 94.3 885.66 95.62C897.65 96.17 891.83 96.49 899.95 98.48C913.97 101.93 919.62 98.3 929.18 98.76C933.07 98.95 936.36 101.7 941.58 101.49C946.63 101.28 951.33 97.98 953.46 97.87C955.44 97.77 956.8 99.89 959.96 99.61C963.9 99.25 967.09 94.9 970.84 94.12C975.12 93.23 977.88 95.16 981.13 94.58C982.24 94.37 983.4 93.62 984.74 92.76C986.51 91.64 988.59 90.34 991.29 89.9C1003.88 87.88 1022.98 95.39 1034.76 93.54C1037.67 93.08 1049.55 87.75 1052.7 86.19C1054.6 85.24 1054.95 83.54 1056.58 82.69C1063.47 79.11 1068.87 81.42 1075.58 83.75C1077.66 84.47 1084.57 88.78 1088.7 88.72C1090.52 88.69 1091.96 87.06 1092.93 87.06C1093.9 87.06 1095.35 88.7 1097.15 88.72C1098.95 88.75 1100.69 86.97 1102.86 86.75C1112.36 85.83 1124.42 86.23 1133.61 85.41C1135.42 85.25 1136.77 83.31 1140.81 83.68C1147.3 84.26 1148.92 94.07 1159.38 94.72C1162.02 94.88 1164.97 93.52 1166.98 94.18C1169.4 94.97 1170.2 97.56 1171.65 98.42C1174.63 100.19 1191.73 99.14 1195.55 97.71C1198.88 96.45 1197.76 92.22 1205.49 92.89C1211.26 93.39 1220.13 107.17 1226.32 102.27C1230.7 98.81 1227.29 97.5 1236.94 95.79C1246.98 94.01 1246.68 96.91 1253.72 96.78C1263.69 96.6 1268.26 90.3 1274.98 101.73C1285.58 95.51 1286.95 105.87 1295 107.5C1300.67 108.65 1310.64 107.26 1317.21 107.76C1319.18 107.9 1320.66 109.43 1321.78 109.55C1323.61 109.74 1324.95 107.8 1326.92 107.87C1330.4 108 1334.08 112.46 1335.8 112.64C1337.6 112.83 1339.03 110.78 1341.03 110.87C1343.58 110.99 1347.19 114.37 1349.94 114.53C1352.52 114.68 1353.97 112.55 1357.49 113.13C1365.25 114.42 1372.7 122.57 1380.76 125.17Z" fill="white"/>
<path d="M331.65 109.38L300.61 106.44C300.61 106.44 283.07 104.11 273.95 105.07C264.83 106.02 261.32 107.62 253.48 105.07C245.64 102.52 243.78 105.51 230.45 102C217.12 98.5 188.36 105.51 185.79 105.04C183.23 104.58 141.33 94.17 141.33 94.17L119.12 92.86C119.12 92.86 99.9701 93.58 87.9301 94.17C75.8901 94.76 77.5201 78.15 70.1201 78.85C62.7201 79.55 57.1701 85.17 55.1301 83.06C53.0801 80.96 39.2901 94.17 39.2901 94.17C39.2901 94.17 31.2201 93.58 27.0101 92.86C22.8001 92.14 20.6901 102 15.4101 104.11C10.3401 106.13 0.860117 104.26 0.160117 104.12V75.72C3.69012 76.11 5.78012 73.61 9.16012 73.7C13.2501 73.82 16.7901 77.1 19.5401 77.55C24.4501 78.35 37.4001 76.75 42.0501 74.94C53.2601 70.55 59.2201 64.1 75.7201 64.8C78.8701 64.93 79.7301 67.73 82.3901 67.57C86.3701 67.33 90.8101 62.98 96.7901 62.66C104.19 62.27 105.54 64.99 111.24 66.47C118.92 68.45 130.66 67.61 136.65 71.97C137.83 72.83 137.58 74.61 138.72 75.49C143.74 79.36 154.57 67.63 160.3 67.74C164.15 67.81 165.99 72.4 170.22 72.76C172.78 72.97 175.01 71.94 177.37 71.83C179.15 71.75 180.93 72.56 182.6 72.42C184.47 72.26 185.74 70.07 189.58 70.85C194.09 71.77 198.92 79.63 200 79.79C203.92 80.64 207.12 77.09 209.87 76.91C210.56 76.87 221.63 78.06 223.27 78.28C240.79 80.53 246.1 92.47 256.82 94.29C260.25 94.88 263.72 94.57 267.18 94.94C278.8 96.19 291.76 95.32 302.43 96.92C303.85 97.13 305.26 98.73 307.05 98.77C310.85 98.86 310.39 94.15 314.75 94.72L317.59 99.3L323.95 99.68C324.86 102.87 327.01 107.98 331.65 109.38Z" fill="#F4F4F4"/>
<path d="M474.31 71.48C470.39 72.1 466.43 72.81 462.81 72.86C455.58 72.97 443.07 68.86 436.47 69.4C433.64 69.64 432.05 71.68 429.82 71.98C419.22 73.41 407.31 71.56 396.85 74C389.58 75.69 387.07 73.3 381.23 73.23C377.87 73.19 374.89 74.58 372.4 74.58C370.46 74.59 368.4 73.18 366.37 73.24C364.02 73.3 354.14 80.39 350.07 81.17C346.47 81.85 337.54 80.07 334.16 78.44C329.93 76.4 324.34 68.68 321.73 68.14C317.51 67.27 314.64 69.49 311.8 69.53C309.64 69.56 302.74 66.5 299.73 66.29C299.73 66.29 269.88 70.79 262.45 66.99C255.02 63.2 234.7 68.51 234.7 68.51L209.87 76.91C207.12 77.09 203.92 80.64 200 79.79C198.92 79.63 194.09 71.77 189.58 70.85C185.74 70.07 184.47 72.26 182.6 72.42C180.93 72.56 179.15 71.75 177.37 71.83C175.01 71.94 172.78 72.97 170.22 72.76C165.99 72.4 164.15 67.81 160.3 67.74C154.57 67.63 143.74 79.36 138.72 75.49C137.58 74.61 137.83 72.83 136.65 71.97C130.66 67.61 118.92 68.45 111.24 66.47C105.54 64.99 104.19 62.27 96.7901 62.66C90.8101 62.98 86.3701 67.33 82.3901 67.57C79.7301 67.73 78.8701 64.93 75.7201 64.8C59.2201 64.1 53.2601 70.55 42.0501 74.94C37.4001 76.75 24.4501 78.35 19.5401 77.55C16.7901 77.1 13.2501 73.82 9.16012 73.7C5.78012 73.61 3.69012 76.11 0.160117 75.72V63.99C2.41012 63.88 5.08012 63.38 6.88012 62.36C7.48012 61.85 7.43012 61.15 7.78012 60.47C7.93012 60.26 7.93012 60.29 8.04012 60.23C8.10012 60.21 8.18012 60.2 8.26012 60.2C9.36012 60.39 10.3701 61.28 11.5301 61.41C13.5801 61.88 16.0301 59.89 17.5701 59.84C18.6801 59.81 19.5001 60.61 20.9401 60.92C22.2801 61.25 23.6801 61.14 25.0401 60.98C26.9101 60.83 29.1301 60.25 30.9801 59.36C31.7901 58.96 32.8601 58.28 33.7301 58.33C34.7001 58.49 35.8001 59.25 36.9801 59.2C39.7001 59.25 43.3001 59.52 46.6301 59.58C50.3301 59.46 53.8901 58.32 57.5801 58.1C61.1201 58.21 66.2901 59.5 69.4301 59.42C70.0501 59.44 70.4501 59.38 70.6701 59.18C70.9701 58.93 70.9201 58.51 71.1101 58.22C71.8001 57.57 73.5201 58.14 75.0701 58.39C76.9001 58.69 78.6501 59.51 80.8201 59.02C82.0001 58.79 83.2101 58.09 84.4101 58.21C85.7201 58.35 87.8701 59.8 88.9401 58.25C89.7201 57.21 89.5901 55.38 90.2201 54.19C91.5201 51.6 95.7901 53.83 97.6401 51.71C98.3501 50.98 98.8101 49.9 99.7801 49.5C100.98 48.92 103.1 49.84 104.39 50.7C105.7 51.63 107.3 51.29 108.6 52.19C110.06 53.26 112.42 55.81 113.38 56C113.56 56.03 113.7 55.97 113.83 55.84C114.35 55.34 114.6 53.19 115.19 52.81C115.35 52.68 115.52 52.68 115.72 52.76C116.83 53.36 118.05 56.06 119.99 55.65C122.49 54.99 125.99 53.63 128.03 51.7C129.17 50.53 129.27 49.22 129.93 48.73C131.16 47.86 133.31 48.27 134.82 48.24C138.4 48.27 143.79 54.46 149.19 53.12C149.98 52.77 150.21 52.28 150.46 51.57C150.61 51.04 150.63 50.48 150.63 50.06C150.62 49.16 150.72 49.18 151.34 49.64C153.06 50.98 158.59 51.05 159.7 49.35C160.46 48.14 160.31 45.98 161.37 45.24C164.12 43.86 169.45 44.79 173.34 44.13C175.65 43.83 176.82 42.93 178.78 43.74C179.79 44.1 181 45.01 182.09 44.88C183.77 44.41 184.86 42.25 186.79 42.06C191.15 40.39 197.6 49.58 201.59 45.63C201.96 45.23 202.26 44.75 202.68 44.43C203.44 43.85 204.11 45.21 204.48 44.81C204.85 44.41 205 43.84 205.48 43.5C206.12 43.03 206.97 43.13 207.7 43.36C210.59 44.6 213.22 45.44 216.51 44.49C221.77 43.03 221.19 43.8 223.88 47.73C224.19 48.08 224.6 48.37 225.06 48.44C226.05 48.61 227.19 47.31 227.92 47.19C228.25 47.05 228.8 47.43 228.99 47.65C229.99 48.74 231.5 48.77 232.95 48.84C233.78 48.88 234.63 48.87 235.47 48.76C237.22 48.56 238.75 47.68 239.66 47.7C240.47 47.65 241.06 48.11 241.83 48.32C243.71 48.75 245.96 47.98 247.8 47.33C249.23 46.74 250.24 46.09 251.3 46.27C252.09 46.38 253.04 47.15 253.8 47.89C254.57 48.63 255.17 49.19 255.59 49.02C256.24 48.84 256.48 46.64 257.51 45.47C257.85 45.03 258.28 44.69 258.82 44.56C259.32 44.5 259.69 44.78 260.03 45.22C261.92 48.5 263.92 47.72 266.97 47.7C268.75 47.94 270.3 48.71 272.09 49.16C273.88 49.68 275.12 50.73 275.59 50.26C276.41 48.98 277.48 46.66 279.4 47.34C280.5 47.88 281.4 49.42 282.63 49.79C285.38 50.97 289.15 49.99 291.5 50.48C291.91 50.85 292.04 51.39 292.67 51.52C294.91 52.17 298.85 50.52 301.51 51.87L301.89 52.08C302.7 52.37 303.74 52.32 304.42 51.73C305.46 50.88 305.36 49.39 305.97 48.73C307.39 47.54 309.8 48.31 311.37 48.81C313.54 49.76 316.6 50.39 319.15 49.9C320.98 49.52 322.65 48.63 324.57 48.7C326.99 48.7 328.85 49.9 331.1 50.05C333.58 50.33 336.16 49.48 338.58 49.33C339.85 49.29 340.61 49.96 341.47 50.73C343.4 52.61 348.21 52.23 352.45 54.27C355.06 55.31 357.4 57.96 359.82 58.91C363.03 59.62 366.89 58.59 370.02 57.53C370.11 57.49 370.17 57.45 370.22 57.42C370.2 57.52 370.24 57.67 370.43 57.86C372.17 59.38 375 59.5 376.96 58.38C377.41 58.16 377.85 58.13 378.18 58.53C380.55 61.64 381.32 61.06 384.93 60.55C387.34 60.36 390.68 61.72 392.66 61.75C394.31 61.82 395.79 61.54 397.43 62.07C400.72 63.03 404.58 65.67 407.94 64.89C409.19 64.67 410.42 63.98 411.68 64.06C413.37 64.2 414.76 65.68 416.53 65.35C418.27 65.07 419.43 63.96 420.8 64.65C422.13 65.2 423.56 67.21 424.81 67.44C426.9 67.77 428.83 65.09 430.99 64.72C434.91 64.38 439.18 65 443.05 65.48C443.99 65.65 443.82 65.77 443.27 66.06C441.36 67.02 443.65 68.3 444.93 68.24C445.63 68.27 446.19 68.08 446.76 67.89C447.32 67.69 447.93 67.48 448.5 67.57C449.94 67.86 450.92 68.97 452.28 69.4C456.94 70.52 454.39 65.34 463.13 68.81C465.61 69.85 467.74 69.96 470.39 70.72C471.62 71.09 472.98 71.48 474.31 71.48Z" fill="#E4E5E3"/>
<path d="M647.27 79.52C644.88 79.17 642.37 78.66 638.99 78.95C633.65 79.41 629.79 81.97 624.66 82.53C620.98 82.02 619.2 74.81 614.29 73.87C607.84 72.63 604.38 78.33 600.5 78.36C596.79 78.4 592.38 74.21 590.45 73.96C588.6 73.72 584.59 74.94 580.89 74.67C573.48 74.13 569.44 69.48 561.79 74.3C558.64 76.29 557.86 80.24 553.3 81.31C549.23 80.35 544.61 81.59 541.4 81.45C539.2 81.35 537.71 79.22 534.92 80.16C531.25 81.4 530.54 85.34 528.83 86.44C528.39 86.72 519.4 90.17 518.44 90.36C510.68 91.95 505.78 84.39 501.71 80.73L499.58 82.71C494.81 78.78 492.32 82.38 490.44 82.38C489.46 82.38 487.97 80.74 486.18 80.7C483.57 80.63 481.35 83.79 478.51 84.31C475.97 84.77 473.52 83.38 470.98 83.84C467.21 84.53 468.01 87.87 466.22 88.83C464.2 89.9 459.41 88.65 457.62 89.93C455.58 91.4 452.06 97 448.82 99.23C445.39 101.58 442.72 100.75 441.71 101.3C439.5 102.5 439.38 106.04 436.58 106.63C434.12 107.15 431.36 105.69 428.66 105.91C424.68 106.24 414.09 112.38 408.48 112.74C404.24 113.02 400.98 108.6 396.14 109.82C393.41 110.46 392.92 115.29 386.02 115.27C380.8 115.27 363.85 108.03 360.63 108.08C359.08 108.11 357.34 109.56 355.05 109.61C351.41 109.69 346.66 107.4 342.26 107.63C339.04 107.8 337.46 109.5 335.15 109.71L331.65 109.38C327.01 107.98 324.86 102.87 323.95 99.68L317.59 99.3L314.75 94.72C310.39 94.15 310.85 98.86 307.05 98.77C305.26 98.73 303.85 97.13 302.43 96.92C291.76 95.32 278.8 96.19 267.18 94.94C263.72 94.57 260.25 94.88 256.82 94.29C246.1 92.47 240.79 80.53 223.27 78.28C221.63 78.06 210.56 76.87 209.87 76.91L234.7 68.51C234.7 68.51 255.02 63.2 262.45 66.99C269.88 70.79 299.73 66.29 299.73 66.29C302.74 66.5 309.64 69.56 311.8 69.53C314.64 69.49 317.51 67.27 321.73 68.14C324.34 68.68 329.93 76.4 334.16 78.44C337.54 80.07 346.47 81.85 350.07 81.17C354.14 80.39 364.02 73.3 366.37 73.24C368.4 73.18 370.46 74.59 372.4 74.58C374.89 74.58 377.87 73.19 381.23 73.23C387.07 73.3 389.58 75.69 396.85 74C407.31 71.56 419.22 73.41 429.82 71.98C432.05 71.68 433.64 69.64 436.47 69.4C443.07 68.86 455.58 72.97 462.81 72.86C466.43 72.81 470.39 72.1 474.31 71.48H474.35C474.9 71.48 475.44 71.41 475.96 71.23C478.34 70.88 480.68 70.6 482.91 70.57C486.1 70.52 490.29 72.19 493.26 71.79C493.36 71.79 493.46 71.76 493.56 71.74L493.57 71.74C495.69 72.42 497.91 72.58 500 71.49C501.32 70.97 502.7 70.34 504.15 70.42C505.65 70.51 507.27 71.21 508.73 71.65C511.04 72.46 512.57 72.33 515.24 72.09C517.5 71.97 519.87 71.74 521.85 70.75C523.94 70.18 526.47 72.34 529.63 71.58C531.65 71.15 533.45 69.88 535.58 70.59C537.19 71.06 539.38 71.93 540.56 71.93C543.85 72.19 546.69 66.58 549.4 64.88C550.54 64.15 551.98 64.48 553.45 64.51C555.72 64.61 558.44 64.86 559.85 66.92C561.33 68.97 561.11 72.31 563.24 70.32C564.19 69.35 564.7 67.88 565.87 67.13C568.67 65.75 573.61 66.19 575.94 65.63C576.88 65.52 577.36 64.76 577.25 63.77C577.31 62.11 576.32 59.67 578.45 59.02C581.45 57.94 586.32 56.16 589.89 54.89H589.9C590.68 55.08 591.44 55.24 592.16 55.36C595.14 55.87 598.24 54.85 601.6 55.42C603.89 55.81 625.24 62.33 626.93 63.24C631.39 65.62 637.99 73.85 643.26 77.24C643.76 77.56 645.31 78.44 647.27 79.52Z" fill="#D8D8D8"/>
<path d="M589.89 54.89C586.32 56.16 581.45 57.94 578.45 59.02C576.32 59.67 577.31 62.11 577.25 63.77C577.36 64.76 576.88 65.52 575.94 65.63C573.61 66.19 568.67 65.75 565.87 67.13C564.7 67.88 564.19 69.35 563.24 70.32C561.11 72.31 561.33 68.97 559.85 66.92C558.44 64.86 555.72 64.61 553.45 64.51C551.98 64.48 550.54 64.15 549.4 64.88C546.69 66.58 543.85 72.19 540.56 71.93C539.38 71.93 537.19 71.06 535.58 70.59C533.45 69.88 531.65 71.15 529.63 71.58C526.47 72.34 523.94 70.18 521.85 70.75C519.87 71.74 517.5 71.97 515.24 72.09C512.57 72.33 511.04 72.46 508.73 71.65C507.27 71.21 505.65 70.51 504.15 70.42C502.7 70.34 501.32 70.97 500 71.49C497.91 72.58 495.69 72.42 493.57 71.74C496.97 71.12 502.75 67.69 508.03 66.93C512.97 66.22 518.05 68.19 521.21 67.81C525.57 67.28 527.76 63.61 531.67 62.31C536.36 60.75 542.91 60.65 547.74 59.48C553.65 58.05 557.92 56.75 564.64 55.34C567.4 54.76 569.84 52.56 572.69 51.93C577.46 50.88 584.31 53.54 589.89 54.89Z" fill="white"/>
<path d="M984.74 92.76C983.4 93.62 982.24 94.37 981.13 94.58C977.88 95.16 975.12 93.23 970.84 94.12C967.09 94.9 963.9 99.25 959.96 99.61C956.8 99.89 955.44 97.77 953.46 97.87C951.33 97.98 946.63 101.28 941.58 101.49C936.36 101.7 933.07 98.95 929.18 98.76C919.62 98.3 913.97 101.93 899.95 98.48C891.83 96.49 897.65 96.17 885.66 95.62C856.89 94.3 857.69 100.35 836.47 106.96C835.17 107.36 821.32 110.65 820.48 110.71C812.46 111.34 812.87 107.35 810.54 106.82C806.78 105.96 804.28 108.39 802.25 108.38C800.02 108.38 797.92 105.73 793.87 105.66C782.5 105.49 769.59 107.95 758.59 107.76C754.75 107.69 750.45 105.77 747.18 105.84C743.51 105.92 740.34 108.69 734.55 108.81C729.96 108.9 724.91 106.74 723.5 106.91C721.3 107.18 719.41 109.84 714.75 109.8C707.15 109.74 705.81 102.74 703.27 101.63C701.43 100.83 698.12 101.02 695.84 100.15C690.09 97.93 686.25 89.4 682.04 84.1C682.49 84.07 682.93 84.02 683.4 83.94C687.29 83.31 689.3 80.81 693.29 80.06C705.65 77.75 718.4 82.11 731.14 75.27C743.4 68.68 757.16 61.37 772.48 62.11C774.37 62.2 775.57 63.93 778.16 63.75C781.98 63.48 788.22 59.81 792.69 59.7C797.99 59.57 807.76 63.69 813.22 64.88C820.77 66.52 833.82 67.49 840.48 69.42C843.52 70.29 844.99 72.92 847.23 73.45C854 75.05 862.41 73.71 868.35 74.54C879.2 76.06 877.79 77.01 890.22 75.98C902.66 74.95 939.3 82.38 952.88 85.57C963.66 88.1 970.66 91.79 982.07 92.65C982.93 92.71 983.82 92.75 984.74 92.76Z" fill="#F4F4F4"/>
</svg>
