<svg width="390" height="156" viewBox="0 0 390 156" fill="none" xmlns="http://www.w3.org/2000/svg">
<path d="M168.749 45.766C165.347 45.227 162.162 47.558 161.63 50.953C161.574 51.296 156.401 82.635 136.626 96.313C135.079 70.161 138.796 47.894 138.852 47.593C139.433 44.205 137.158 40.978 133.77 40.397C130.375 39.816 127.155 42.091 126.574 45.479C126.266 47.264 119.14 89.663 128.737 128.52C129.437 131.362 131.985 133.259 134.785 133.259C135.282 133.259 135.779 133.203 136.283 133.077C139.622 132.251 141.666 128.87 140.84 125.531C140.098 122.521 139.475 119.476 138.936 116.417C144.004 119.07 150.647 121.534 157.899 121.534C160.622 121.534 163.422 121.191 166.257 120.379C169.568 119.434 171.486 115.983 170.541 112.672C169.596 109.361 166.145 107.436 162.834 108.395C156.492 110.201 149.947 108.087 145.103 105.602C168.161 88.515 173.705 54.474 173.957 52.864C174.482 49.462 172.158 46.284 168.763 45.752L168.749 45.766Z" fill="#899BA3"/>
<path d="M208.551 43.4C201.544 44.66 195.538 49.336 191.177 56.917C183.407 70.434 182.399 90.195 188.615 107.261C194.614 123.718 204.05 128.576 210.917 129.752C212.135 129.962 213.367 130.06 214.599 130.06C221.648 130.06 228.746 126.735 233.436 121.044C241.605 111.125 246.624 88.893 240.492 70.28C234.605 52.43 221.158 41.111 208.551 43.4ZM223.818 113.12C221.592 115.822 217.385 118.216 213.024 117.467C207.914 116.592 203.406 111.454 200.326 102.998C194.628 87.36 197.05 71.708 201.978 63.133C203.7 60.137 206.619 56.413 210.749 55.671C211.043 55.622 211.351 55.594 211.673 55.594C216.363 55.594 224.329 61.103 228.641 74.193C233.226 88.109 229.775 105.882 223.804 113.127L223.818 113.12Z" fill="#899BA3"/>
<path d="M298.095 44.331C295.022 44.59 292.607 46.991 292.404 50.064C291.886 54.341 284.613 79.688 276.024 85.981C274.456 87.136 273.644 86.982 273.343 86.926C268.443 86.009 266.287 67.97 268.898 49.812C269.388 46.41 267.029 43.246 263.62 42.756C260.218 42.252 257.054 44.625 256.564 48.027C256.501 48.468 254.996 59.031 255.451 70.154C256.165 87.605 261.415 97.37 271.054 99.176C274.106 99.75 278.81 99.603 283.885 95.669C288.407 92.162 292.264 86.212 295.4 79.765C295.449 84.784 295.246 90.258 294.658 95.977C292.25 113.778 286.307 121.422 281.547 122.633C278.53 123.41 275.219 121.8 272.685 118.342C270.648 115.563 266.749 114.968 263.97 116.998C261.198 119.035 260.596 122.934 262.633 125.706C267.141 131.852 273.525 135.282 280.035 135.282C281.568 135.282 283.101 135.093 284.627 134.701C291.361 132.986 303.219 125.874 307.027 97.531C307.034 97.468 307.041 97.412 307.048 97.349C309.799 70.952 304.899 50.008 304.689 49.133C303.975 46.137 301.161 44.072 298.109 44.31L298.095 44.331Z" fill="#899BA3"/>
<path d="M386.876 74.641C381.178 47.215 365.036 39.9 356.405 39.9C348.502 39.9 336.693 45.612 325.29 72.821C315.567 96.04 324.982 126.196 325.388 127.47C326.431 130.746 329.931 132.552 333.214 131.516C336.49 130.473 338.303 126.973 337.267 123.69C337.19 123.445 330.141 100.716 335.195 82.334H375.599C378.301 99.617 375.291 110.663 372.099 122.269L371.644 123.935C370.734 127.253 372.694 130.683 376.012 131.593C376.565 131.747 377.118 131.817 377.657 131.817C380.394 131.817 382.907 129.997 383.663 127.225L384.118 125.573C387.856 111.979 391.72 97.93 386.883 74.648L386.876 74.641ZM356.405 52.367C359.352 52.367 367.731 55.797 372.666 69.867H340.396C347.354 56.287 353.542 52.367 356.405 52.367Z" fill="#899BA3"/>
<path d="M73.5208 103.69C76.2438 104.502 79.3168 103.844 81.1718 101.688C85.1338 97.0822 82.8448 90.7822 77.8118 89.2842C74.0458 87.8982 67.9698 90.6842 63.2028 92.0492C62.6148 92.2172 62.4048 92.9101 62.8108 93.3792C66.0518 97.1311 69.6078 102.787 73.5208 103.69Z" fill="#EEAD4C"/>
<path d="M50.0078 110.837C50.7358 113.588 52.8988 115.863 55.7058 116.325C61.7048 117.305 65.8838 112.069 64.5398 106.994C63.7558 103.053 58.2118 99.3292 54.5648 95.9692C54.1098 95.5562 53.4168 95.7382 53.2278 96.3262C51.7158 101.051 48.7408 107.029 50.0078 110.837Z" fill="#EEAD4C"/>
<path d="M62.0128 70.5452C64.1268 68.6412 67.1858 67.9202 69.7828 69.0752C75.3338 71.5392 75.9708 78.2102 72.0648 81.7172C69.2508 84.5872 62.5728 84.6712 57.6798 85.4832C57.0778 85.5812 56.5878 85.0492 56.7558 84.4542C58.0788 79.6732 58.8628 73.0442 62.0058 70.5452H62.0128Z" fill="#EEAD4C"/>
<path d="M46.5988 93.7851L34.6078 133.986C34.3348 134.896 33.6838 135.645 32.8158 136.044C31.9688 136.429 31.0378 136.436 30.1978 136.058C20.0478 131.487 11.5218 123.542 6.20179 113.7C5.18679 111.831 4.28379 109.878 3.51379 107.897C3.16379 106.987 3.21279 106.014 3.66078 105.16C4.10179 104.313 4.85779 103.725 5.78879 103.508L46.5918 93.7851H46.5988Z" fill="#EEAD4C"/>
<path d="M45.0798 87.4362L4.26278 97.1592C3.33879 97.3762 2.39379 97.1942 1.60979 96.6412C0.825785 96.0812 0.342785 95.2482 0.244785 94.2892C-0.406215 87.6742 0.244785 81.0662 2.15579 74.6402C4.07379 68.2141 7.15379 62.3342 11.3188 57.1542C11.9278 56.4052 12.7888 55.9712 13.7478 55.9292C14.1188 55.9152 14.4758 55.9642 14.8188 56.0622C15.3578 56.2232 15.8478 56.5242 16.2468 56.9442V56.9582H16.2608L45.0798 87.4362Z" fill="#EEAD4C"/>
<path d="M49.8258 82.9492L21.0068 52.4712C20.3488 51.7782 20.0408 50.8752 20.1318 49.9232C20.2228 48.9572 20.7128 48.1172 21.5038 47.5502C23.0788 46.4162 24.7448 45.3732 26.4458 44.4282L26.9358 44.1622C36.7708 38.8352 48.2508 36.8612 59.2548 38.5902C60.1578 38.7372 60.9418 39.2412 61.4388 40.0322C61.9498 40.8442 62.0828 41.8242 61.8098 42.7342L49.8328 82.9422L49.8258 82.9492Z" fill="#EEAD4C"/>
<path d="M80.1428 38.8142C88.1088 37.1202 93.9328 33.4522 97.4958 27.8732C104.237 17.3172 99.9248 4.10116 99.7288 3.54816C99.3018 2.26716 98.2308 1.30816 96.9078 1.01416C86.7018 -1.22584 78.3648 0.25116 72.1138 5.38216C66.7168 9.80616 63.9728 16.1552 62.5798 21.6362C59.3598 13.2852 62.3838 7.03416 62.5798 6.64916C63.5528 4.78016 62.8248 2.46316 60.9558 1.47616C59.0728 0.489159 56.7418 1.21016 55.7548 3.09316C55.4188 3.73016 47.7258 18.8222 62.1038 35.2582C62.6008 35.8252 64.7218 39.5842 66.1358 40.4942C75.9568 46.8432 83.2228 55.2152 87.4018 65.0922C92.1478 76.3202 92.7288 89.1441 89.0188 101.212C82.8658 121.225 64.6308 139.453 36.8338 139.012C35.9168 138.998 33.6418 140.447 32.7038 141.378C32.1928 141.889 31.6748 142.393 31.1078 142.841C23.5058 148.812 20.0968 148.294 18.9278 147.741C15.6868 146.194 14.7278 138.984 14.7278 135.036C14.7278 134.749 14.7278 134.483 14.7418 134.238C14.8188 132.117 13.1668 130.332 11.0458 130.248C8.91779 130.143 7.12579 131.816 7.04179 133.944C6.97879 135.61 6.65679 150.387 15.5888 154.678C17.1288 155.42 18.7808 155.791 20.5448 155.791C24.9688 155.791 30.0998 153.453 36.0638 148.735C36.2808 148.777 36.5048 148.798 36.7358 148.798C49.9238 148.973 62.2088 145.522 72.7368 138.606C84.8888 130.619 93.9958 118.355 98.3848 104.089C104.839 83.1031 100.821 57.0702 80.1498 38.8142H80.1428ZM76.7478 23.6802C77.6228 21.6152 79.8908 20.1242 83.4608 19.2632C85.5258 18.7592 86.7928 16.6732 86.3028 14.6152C85.9668 13.2292 84.9238 12.2002 83.6568 11.8222C83.0268 11.6402 82.3408 11.6052 81.6548 11.7732C78.1058 12.6342 75.2568 14.0132 73.1218 15.8962C74.1578 14.1882 75.4318 12.6062 77.0208 11.3182C80.9198 8.12616 86.2748 7.04816 92.9598 8.09816C93.6598 11.5072 94.4438 18.3812 90.9858 23.7642C88.4168 27.7612 83.8248 30.3652 77.3288 31.5272C76.4608 29.2732 75.7188 26.1022 76.7478 23.6802Z" fill="#EEAD4C"/>
</svg>
