<svg width="108" height="100" viewBox="0 0 108 100" fill="none" xmlns="http://www.w3.org/2000/svg">
<path d="M36.6399 0.0182406C59.6939 -0.543031 88.6993 11.8155 97.6422 41.6837C98.2596 43.7454 96.9401 45.8498 94.841 46.3346L87.8725 47.944C85.7734 48.4288 83.6951 47.1102 83.0272 45.0642C76.1851 24.1043 55.2888 14.5053 37.0043 14.9505C27.3073 15.1866 20.0355 18.2556 16.5083 22.2571C14.8568 24.1306 13.915 26.2964 13.7907 28.906C13.6622 31.6063 14.3938 35.2724 16.9718 39.9893L17.2169 40.4307C20.5777 46.3849 25.1939 50.6789 30.679 53.7521C30.8563 47.2267 31.4082 40.3576 32.1477 33.4577C32.3713 31.371 34.2252 29.8524 36.3196 30.0207L46.3778 30.8288C48.579 31.0056 50.192 32.9707 49.9595 35.1641C49.0635 43.6182 48.5067 51.6384 48.5616 58.7718C63.5068 61.8514 76.9361 60.3869 88.5277 59.4567C91.592 59.2108 94.585 59.0051 96.9763 59.0692C98.153 59.1008 99.5861 59.2032 100.978 59.555C102.103 59.8392 104.854 60.6769 106.639 63.4141C108.803 66.7341 107.931 70.1141 107.12 71.8629C106.352 73.5161 105.19 74.8521 104.267 75.8007C102.573 77.5422 100.127 79.5252 97.0728 81.7698L95.7273 82.7477C85.5413 90.0765 76.714 95.016 69.052 97.6628C61.4076 100.304 54.1993 100.901 47.8797 98.4448C41.4082 95.9292 37.3078 90.7802 34.8163 84.9674C32.963 80.6435 31.2845 73.7452 30.679 68.5131C25.3145 66.4725 18.8964 61.1983 13.8547 56.4742C7.95714 50.9482 3.98201 43.7755 1.45617 36.1028C-0.246392 30.9309 -0.625159 25.3447 1.23399 20.2269C2.31097 17.2622 3.69918 14.1847 5.28434 12.3864C12.6069 4.07945 24.6642 0.309849 36.6399 0.0182406ZM49.2148 71.1108C49.6258 72.8538 50.9816 77.4777 51.5491 78.8017C52.2471 80.4302 53.5662 82.1177 54.7339 83.4187C56.1449 84.9907 58.144 85.8514 60.2441 86.0911C65.4986 86.6909 70.8013 85.381 75.0723 82.2655C79.4545 79.0689 84.7609 75.0342 86.9255 72.7343C77.5053 73.4343 61.1262 72.9163 49.2148 71.1108Z" fill="#E11D48"/>
</svg>
