<svg width="385" height="160" viewBox="0 0 385 160" fill="none" xmlns="http://www.w3.org/2000/svg">
<path d="M115.591 158.766V137.766L111.216 158.766H109.165L104.566 137.766V158.766H100.331V128.379H106.435L110.215 146.873L113.68 128.379H119.833V158.766H115.591Z" fill="white"/>
<path d="M133.217 158.766H128.66V146.467L122.962 128.379H127.701L130.935 140.314L134.078 128.379H138.677L133.21 146.467V158.766H133.217Z" fill="white"/>
<path d="M161.553 158.766H149.436V128.379H153.993V154.531H161.553V158.766Z" fill="white"/>
<path d="M176.582 132.614H168.749V140.909H174.398V145.144H168.749V154.531H176.582V158.766H164.192V128.379H176.582V132.614Z" fill="white"/>
<path d="M195.307 158.766V137.766L190.932 158.766H188.881L184.282 137.766V158.766H180.047V128.379H186.151L189.931 146.873L193.396 128.379H199.549V158.766H195.307Z" fill="white"/>
<path d="M217.714 148.882C217.714 153.39 217.35 155.035 215.894 156.813C214.662 158.318 212.702 159.228 210.609 159.228C208.516 159.228 206.507 158.318 205.282 156.813C203.826 155.035 203.462 153.348 203.462 148.882V138.27C203.462 133.804 203.826 132.117 205.282 130.346C206.514 128.841 208.474 127.931 210.609 127.931C212.744 127.931 214.711 128.841 215.894 130.346C217.35 132.124 217.714 133.762 217.714 138.27V148.882ZM208.012 148.378C208.012 151.248 208.103 152.613 208.334 153.25C208.698 154.342 209.517 154.979 210.609 154.979C211.701 154.979 212.611 154.251 212.933 152.977C213.066 152.382 213.164 150.926 213.164 148.378V138.767C213.164 135.806 213.073 134.532 212.842 133.895C212.478 132.803 211.659 132.166 210.609 132.166C209.426 132.166 208.558 132.894 208.243 134.168C208.103 134.763 208.012 136.31 208.012 138.767V148.378Z" fill="white"/>
<path d="M232.519 158.766L225.911 139.999V158.766H221.676V128.379H226.275L232.519 146.418V128.379H236.754V158.766H232.519Z" fill="white"/>
<path d="M245.819 152.067L244.769 158.766H240.261L245.224 128.379H251.146L256.431 158.766H251.741L250.691 152.067H245.819ZM248.192 135.715L246.463 147.832H250.019L248.199 135.715H248.192Z" fill="white"/>
<path d="M259.532 128.379H266C271.236 128.379 273.7 131.109 273.7 136.947V150.205C273.7 156.036 271.243 158.773 266 158.773H259.532V128.379ZM265.503 154.531C266.777 154.531 267.778 154.118 268.373 153.348C268.968 152.529 269.15 151.619 269.15 149.337V137.808C269.15 135.533 268.968 134.616 268.373 133.797C267.778 133.02 266.777 132.614 265.503 132.614H264.089V154.524H265.503V154.531Z" fill="white"/>
<path d="M290.052 132.614H282.219V140.909H287.868V145.144H282.219V154.531H290.052V158.766H277.662V128.379H290.052V132.614Z" fill="white"/>
<path d="M310.597 135.848C310.324 133.111 309.638 132.159 307.958 132.159C306.411 132.159 305.41 133.342 305.41 135.162C305.41 137.255 306.229 138.487 309.463 141.497C314.202 145.823 315.343 147.741 315.343 151.43C315.343 156.078 312.424 159.221 308.147 159.221C303.87 159.221 300.72 155.987 300.587 151.024L304.913 150.247C305.046 153.439 306.096 154.986 308.147 154.986C309.834 154.986 310.926 153.712 310.926 151.661C310.926 150.52 310.513 149.428 309.743 148.378C309.015 147.419 308.742 147.104 306.187 144.78C302.358 141.224 300.993 138.809 300.993 135.442C300.993 130.934 303.863 127.924 308.147 127.924C312.158 127.924 314.482 130.381 315.028 135.211L310.611 135.848H310.597Z" fill="white"/>
<path d="M326.907 158.766H322.35V132.614H317.52V128.379H331.828V132.614H326.907V158.766Z" fill="white"/>
<path d="M337.932 152.067L336.882 158.766H332.374L337.337 128.379H343.259L348.544 158.766H343.854L342.804 152.067H337.932ZM340.298 135.715L338.569 147.832H342.125L340.305 135.715H340.298Z" fill="white"/>
<path d="M362.481 158.766L355.873 139.999V158.766H351.638V128.379H356.237L362.481 146.418V128.379H366.716V158.766H362.481Z" fill="white"/>
<path d="M370.776 128.379H377.244C382.48 128.379 384.944 131.109 384.944 136.947V150.205C384.944 156.036 382.487 158.773 377.244 158.773H370.776V128.379ZM376.74 154.531C378.014 154.531 379.015 154.118 379.61 153.348C380.205 152.529 380.387 151.619 380.387 149.337V137.808C380.387 135.533 380.205 134.616 379.61 133.797C379.015 133.02 378.014 132.614 376.74 132.614H375.326V154.524H376.74V154.531Z" fill="white"/>
<path d="M164.549 20.7402C161.147 20.2012 157.962 22.5322 157.43 25.9272C157.374 26.2702 152.201 57.6092 132.426 71.2872C130.879 45.1352 134.596 22.8682 134.652 22.5672C135.233 19.1792 132.958 15.9522 129.57 15.3712C126.175 14.7902 122.955 17.0652 122.374 20.4532C122.066 22.2382 114.94 64.6372 124.537 103.494C125.237 106.336 127.785 108.233 130.585 108.233C131.082 108.233 131.579 108.177 132.083 108.051C135.422 107.225 137.466 103.844 136.64 100.505C135.898 97.4952 135.275 94.4502 134.736 91.3912C139.804 94.0442 146.447 96.5082 153.699 96.5082C156.422 96.5082 159.222 96.1652 162.057 95.3532C165.368 94.4082 167.286 90.9572 166.341 87.6462C165.396 84.3352 161.945 82.4102 158.634 83.3692C152.292 85.1752 145.747 83.0612 140.903 80.5762C163.961 63.4892 169.505 29.4482 169.757 27.8382C170.282 24.4362 167.958 21.2582 164.563 20.7262L164.549 20.7402Z" fill="white"/>
<path d="M204.351 18.3742C197.344 19.6342 191.338 24.3102 186.977 31.8912C179.207 45.4082 178.199 65.1692 184.415 82.2352C190.414 98.6922 199.85 103.55 206.717 104.726C207.935 104.936 209.167 105.034 210.399 105.034C217.448 105.034 224.546 101.709 229.236 96.0182C237.405 86.0992 242.424 63.8672 236.292 45.2542C230.405 27.4042 216.958 16.0852 204.351 18.3742ZM219.618 88.0942C217.392 90.7962 213.185 93.1902 208.824 92.4412C203.714 91.5662 199.206 86.4282 196.126 77.9722C190.428 62.3342 192.85 46.6822 197.778 38.1072C199.5 35.1112 202.419 31.3872 206.549 30.6452C206.843 30.5962 207.151 30.5682 207.473 30.5682C212.163 30.5682 220.129 36.0772 224.441 49.1672C229.026 63.0832 225.575 80.8562 219.604 88.1012L219.618 88.0942Z" fill="white"/>
<path d="M293.895 19.3052C290.822 19.5642 288.407 21.9652 288.204 25.0382C287.686 29.3152 280.413 54.6622 271.824 60.9552C270.256 62.1102 269.444 61.9562 269.143 61.9002C264.243 60.9832 262.087 42.9442 264.698 24.7862C265.188 21.3842 262.829 18.2202 259.42 17.7302C256.018 17.2262 252.854 19.5992 252.364 23.0012C252.301 23.4422 250.796 34.0052 251.251 45.1282C251.965 62.5792 257.215 72.3442 266.854 74.1502C269.906 74.7242 274.61 74.5772 279.685 70.6432C284.207 67.1362 288.064 61.1862 291.2 54.7392C291.249 59.7582 291.046 65.2322 290.458 70.9512C288.05 88.7522 282.107 96.3962 277.347 97.6072C274.33 98.3842 271.019 96.7742 268.485 93.3162C266.448 90.5372 262.549 89.9422 259.77 91.9722C256.998 94.0092 256.396 97.9082 258.433 100.68C262.941 106.826 269.325 110.256 275.835 110.256C277.368 110.256 278.901 110.067 280.427 109.675C287.161 107.96 299.019 100.848 302.827 72.5052C302.834 72.4422 302.841 72.3862 302.848 72.3232C305.599 45.9262 300.699 24.9822 300.489 24.1072C299.775 21.1112 296.961 19.0462 293.909 19.2842L293.895 19.3052Z" fill="white"/>
<path d="M382.676 49.6152C376.978 22.1892 360.836 14.8742 352.205 14.8742C344.302 14.8742 332.493 20.5862 321.09 47.7952C311.367 71.0142 320.782 101.17 321.188 102.444C322.231 105.72 325.731 107.526 329.014 106.49C332.29 105.447 334.103 101.947 333.067 98.6642C332.99 98.4192 325.941 75.6902 330.995 57.3082H371.399C374.101 74.5912 371.091 85.6372 367.899 97.2432L367.444 98.9092C366.534 102.227 368.494 105.657 371.812 106.567C372.365 106.721 372.918 106.791 373.457 106.791C376.194 106.791 378.707 104.971 379.463 102.199L379.918 100.547C383.656 86.9532 387.52 72.9042 382.683 49.6222L382.676 49.6152ZM352.205 27.3412C355.152 27.3412 363.531 30.7712 368.466 44.8412H336.196C343.154 31.2612 349.342 27.3412 352.205 27.3412Z" fill="white"/>
<path d="M73.5208 103.69C76.2438 104.502 79.3168 103.844 81.1718 101.688C85.1338 97.0822 82.8448 90.7822 77.8118 89.2842C74.0458 87.8982 67.9698 90.6842 63.2028 92.0492C62.6148 92.2172 62.4048 92.9102 62.8108 93.3792C66.0518 97.1312 69.6078 102.787 73.5208 103.69Z" fill="white"/>
<path d="M50.0078 110.837C50.7358 113.588 52.8988 115.863 55.7058 116.325C61.7048 117.305 65.8838 112.069 64.5398 106.994C63.7558 103.053 58.2118 99.3292 54.5648 95.9692C54.1098 95.5562 53.4168 95.7382 53.2278 96.3262C51.7158 101.051 48.7408 107.029 50.0078 110.837Z" fill="white"/>
<path d="M62.0128 70.5452C64.1268 68.6412 67.1858 67.9202 69.7828 69.0752C75.3338 71.5392 75.9708 78.2102 72.0648 81.7172C69.2508 84.5872 62.5728 84.6712 57.6798 85.4832C57.0778 85.5812 56.5878 85.0492 56.7558 84.4542C58.0788 79.6732 58.8628 73.0442 62.0058 70.5452H62.0128Z" fill="white"/>
<path d="M46.5988 93.7852L34.6078 133.986C34.3348 134.896 33.6838 135.645 32.8158 136.044C31.9688 136.429 31.0378 136.436 30.1978 136.058C20.0478 131.487 11.5218 123.542 6.20179 113.7C5.18679 111.831 4.28379 109.878 3.51379 107.897C3.16379 106.987 3.21279 106.014 3.66078 105.16C4.10179 104.313 4.85779 103.725 5.78879 103.508L46.5918 93.7852H46.5988Z" fill="white"/>
<path d="M45.0798 87.4362L4.26278 97.1592C3.33879 97.3762 2.39379 97.1942 1.60979 96.6412C0.825785 96.0812 0.342785 95.2482 0.244785 94.2892C-0.406215 87.6742 0.244785 81.0662 2.15579 74.6402C4.07379 68.2142 7.15379 62.3342 11.3188 57.1542C11.9278 56.4052 12.7888 55.9712 13.7478 55.9292C14.1188 55.9152 14.4758 55.9642 14.8188 56.0622C15.3578 56.2232 15.8478 56.5242 16.2468 56.9442V56.9582H16.2608L45.0798 87.4362Z" fill="white"/>
<path d="M49.8258 82.9492L21.0068 52.4712C20.3488 51.7782 20.0408 50.8752 20.1318 49.9232C20.2228 48.9572 20.7128 48.1172 21.5038 47.5502C23.0788 46.4162 24.7448 45.3732 26.4458 44.4282L26.9358 44.1622C36.7708 38.8352 48.2508 36.8612 59.2548 38.5902C60.1578 38.7372 60.9418 39.2412 61.4388 40.0322C61.9498 40.8442 62.0828 41.8242 61.8098 42.7342L49.8328 82.9422L49.8258 82.9492Z" fill="white"/>
<path d="M80.1428 38.8142C88.1088 37.1202 93.9328 33.4522 97.4958 27.8732C104.237 17.3172 99.9248 4.10116 99.7288 3.54816C99.3018 2.26716 98.2308 1.30816 96.9078 1.01416C86.7018 -1.22584 78.3648 0.25116 72.1138 5.38216C66.7168 9.80616 63.9728 16.1552 62.5798 21.6362C59.3598 13.2852 62.3838 7.03416 62.5798 6.64916C63.5528 4.78016 62.8248 2.46316 60.9558 1.47616C59.0728 0.48916 56.7418 1.21016 55.7548 3.09316C55.4188 3.73016 47.7258 18.8222 62.1038 35.2582C62.6008 35.8252 64.7218 39.5842 66.1358 40.4942C75.9568 46.8432 83.2228 55.2152 87.4018 65.0922C92.1478 76.3202 92.7288 89.1442 89.0188 101.212C82.8658 121.225 64.6308 139.453 36.8338 139.012C35.9168 138.998 33.6418 140.447 32.7038 141.378C32.1928 141.889 31.6748 142.393 31.1078 142.841C23.5058 148.812 20.0968 148.294 18.9278 147.741C15.6868 146.194 14.7278 138.984 14.7278 135.036C14.7278 134.749 14.7278 134.483 14.7418 134.238C14.8188 132.117 13.1668 130.332 11.0458 130.248C8.91779 130.143 7.12579 131.816 7.04179 133.944C6.97879 135.61 6.65679 150.387 15.5888 154.678C17.1288 155.42 18.7808 155.791 20.5448 155.791C24.9688 155.791 30.0998 153.453 36.0638 148.735C36.2808 148.777 36.5048 148.798 36.7358 148.798C49.9238 148.973 62.2088 145.522 72.7368 138.606C84.8888 130.619 93.9958 118.355 98.3848 104.089C104.839 83.1032 100.821 57.0702 80.1498 38.8142H80.1428ZM76.7478 23.6802C77.6228 21.6152 79.8908 20.1242 83.4608 19.2632C85.5258 18.7592 86.7928 16.6732 86.3028 14.6152C85.9668 13.2292 84.9238 12.2002 83.6568 11.8222C83.0268 11.6402 82.3408 11.6052 81.6548 11.7732C78.1058 12.6342 75.2568 14.0132 73.1218 15.8962C74.1578 14.1882 75.4318 12.6062 77.0208 11.3182C80.9198 8.12616 86.2748 7.04816 92.9598 8.09816C93.6598 11.5072 94.4438 18.3812 90.9858 23.7642C88.4168 27.7612 83.8248 30.3652 77.3288 31.5272C76.4608 29.2732 75.7188 26.1022 76.7478 23.6802Z" fill="white"/>
</svg>
