<svg width="428" height="110" viewBox="0 0 428 110" fill="none" xmlns="http://www.w3.org/2000/svg">
<path d="M290 110L290 11.9725H307.369L307.369 19.9363C310.412 16.879 314.004 14.4586 318.146 12.6752C322.372 10.8917 326.936 10 331.838 10C338.938 10 345.362 11.8259 351.109 15.4777C356.857 19.0446 361.421 23.8429 364.802 29.8726C368.267 35.9023 370 42.6115 370 50C370 57.3036 368.267 64.0127 364.802 70.1274C361.421 76.1571 356.857 80.9979 351.109 84.6497C345.362 88.2166 338.938 90 331.838 90C327.528 90 323.513 89.3206 319.794 87.9618C316.16 86.603 312.863 84.7346 309.905 82.3567V110H290ZM329.43 72.293C333.487 72.293 337.121 71.2739 340.333 69.2357C343.629 67.1974 346.249 64.5223 348.193 61.2102C350.137 57.8132 351.109 54.0764 351.109 50C351.109 45.9236 350.137 42.2293 348.193 38.9172C346.249 35.5202 343.629 32.8025 340.333 30.7643C337.121 28.7261 333.529 27.707 329.556 27.707C325.499 27.707 321.823 28.7261 318.526 30.7643C315.314 32.8025 312.736 35.5202 310.792 38.9172C308.848 42.2293 307.876 45.9236 307.876 50C307.876 54.0764 308.848 57.8132 310.792 61.2102C312.736 64.5223 315.314 67.1974 318.526 69.2357C321.823 71.2739 325.457 72.293 329.43 72.293Z" fill="white"/>
<path d="M372 30H386.426L394.667 29.7035V62.6923C394.667 73.5885 397.146 81.1523 402.105 85.3838C407.155 89.6153 415.787 90.9377 428 89.3508V70.7851C424.602 70.9967 421.756 71.0496 419.46 70.9438C417.164 70.7322 415.42 69.9917 414.226 68.7222C413.032 67.4528 412.435 65.4428 412.435 62.6923V29.6865H428V10.0099H412.435L412.419 10.0099L405.333 10H385.426C378.011 10 372 16.011 372 23.4259V30Z" fill="white"/>
<path d="M236.968 90C230.026 90 223.677 88.2166 217.921 84.6497C212.164 80.9979 207.55 76.1571 204.079 70.1274C200.693 64.0127 199 57.3036 199 50C199 42.6964 200.693 36.0297 204.079 30C207.55 23.8854 212.164 19.0446 217.921 15.4777C223.677 11.8259 230.026 10 236.968 10C241.963 10 246.577 10.8917 250.81 12.6752C255.042 14.4586 258.64 16.9639 261.603 20.1911V12H279V88H261.603V79.8089C258.64 82.9512 255.042 85.4565 250.81 87.3248C246.577 89.1083 241.963 90 236.968 90ZM239.381 72.293C243.444 72.293 247.085 71.2739 250.302 69.2357C253.603 67.1974 256.228 64.5223 258.175 61.2102C260.122 57.8132 261.095 54.0764 261.095 50C261.095 45.9236 260.122 42.2293 258.175 38.9172C256.228 35.5202 253.603 32.8026 250.302 30.7643C247.085 28.7261 243.487 27.707 239.508 27.707C235.444 27.707 231.762 28.7261 228.46 30.7643C225.243 32.8026 222.661 35.5202 220.714 38.9172C218.767 42.2293 217.794 45.9236 217.794 50C217.794 54.0764 218.767 57.8132 220.714 61.2102C222.661 64.5223 225.243 67.1974 228.46 69.2357C231.762 71.2739 235.402 72.293 239.381 72.293Z" fill="white"/>
<path d="M138 30H152.426L160.667 29.7035V62.6923C160.667 73.5885 163.146 81.1523 168.105 85.3838C173.155 89.6153 181.787 90.9377 194 89.3509V70.7851C190.602 70.9967 187.756 71.0496 185.46 70.9438C183.164 70.7322 181.42 69.9917 180.226 68.7222C179.032 67.4528 178.435 65.4428 178.435 62.6923V29.6865H194V10.0099H178.435L178.419 10.0099L171.333 10H151.426C144.011 10 138 16.011 138 23.4259V30Z" fill="white"/>
<path d="M36.6399 0.0182406C59.6939 -0.543031 88.6993 11.8155 97.6423 41.6837C98.2596 43.7454 96.9401 45.8498 94.841 46.3346L87.8725 47.944C85.7734 48.4288 83.6951 47.1102 83.0272 45.0642C76.1851 24.1043 55.2888 14.5053 37.0043 14.9505C27.3073 15.1866 20.0355 18.2556 16.5083 22.2571C14.8568 24.1306 13.915 26.2964 13.7907 28.906C13.6622 31.6063 14.3938 35.2724 16.9718 39.9893L17.2169 40.4307C20.5777 46.3849 25.1939 50.6789 30.679 53.7521C30.8563 47.2267 31.4082 40.3576 32.1477 33.4577C32.3713 31.371 34.2252 29.8524 36.3196 30.0207L46.3778 30.8288C48.579 31.0056 50.192 32.9707 49.9595 35.1641C49.0635 43.6182 48.5067 51.6384 48.5616 58.7718C63.5068 61.8514 76.9361 60.3869 88.5277 59.4567C91.592 59.2108 94.585 59.0051 96.9763 59.0692C98.153 59.1008 99.5861 59.2032 100.978 59.555C102.103 59.8392 104.854 60.6769 106.639 63.4141C108.803 66.7341 107.931 70.1141 107.12 71.8629C106.352 73.5161 105.19 74.8521 104.267 75.8007C102.573 77.5422 100.127 79.5252 97.0728 81.7698L95.7273 82.7477C85.5413 90.0765 76.714 95.016 69.052 97.6628C61.4076 100.304 54.1993 100.901 47.8797 98.4448C41.4082 95.9292 37.3078 90.7802 34.8163 84.9674C32.963 80.6435 31.2845 73.7452 30.679 68.5131C25.3145 66.4725 18.8964 61.1983 13.8547 56.4742C7.95714 50.9482 3.98201 43.7755 1.45617 36.1028C-0.246392 30.9309 -0.625159 25.3447 1.23399 20.2269C2.31097 17.2622 3.69918 14.1847 5.28434 12.3864C12.6069 4.07945 24.6642 0.309849 36.6399 0.0182406ZM49.2148 71.1108C49.6258 72.8538 50.9816 77.4777 51.5491 78.8017C52.2471 80.4302 53.5662 82.1177 54.7339 83.4187C56.1449 84.9907 58.144 85.8514 60.2441 86.0911C65.4986 86.6909 70.8013 85.381 75.0723 82.2655C79.4545 79.0689 84.7609 75.0342 86.9255 72.7343C77.5053 73.4343 61.1262 72.9163 49.2148 71.1108Z" fill="white"/>
</svg>
