<svg width="278" height="271" viewBox="0 0 278 271" fill="none" xmlns="http://www.w3.org/2000/svg">
<path d="M47.1438 176.233C43.5803 175.668 40.2442 178.112 39.687 181.671C39.6283 182.031 34.2098 214.887 13.4965 229.227C11.876 201.809 15.7694 178.464 15.8281 178.148C16.4366 174.596 14.0537 171.213 10.5049 170.604C6.94882 169.995 3.57601 172.38 2.96744 175.932C2.64483 177.804 -4.81932 222.255 5.23308 262.994C5.9663 265.973 8.63522 267.962 11.5681 267.962C12.0887 267.962 12.6092 267.903 13.1372 267.771C16.6346 266.905 18.7756 263.361 17.9104 259.86C17.1332 256.704 16.4806 253.512 15.9161 250.305C21.2246 253.086 28.1828 255.669 35.7789 255.669C38.6311 255.669 41.564 255.31 44.5335 254.458C48.0017 253.468 50.0107 249.85 49.0208 246.378C48.031 242.907 44.4162 240.889 40.9481 241.894C34.3051 243.788 27.4496 241.571 22.3757 238.966C46.5279 221.052 52.335 185.363 52.5989 183.675C53.1488 180.108 50.7146 176.776 47.1584 176.218L47.1438 176.233Z" fill="white"/>
<path d="M88.8345 173.752C81.495 175.073 75.204 179.976 70.6361 187.924C62.4974 202.095 61.4415 222.813 67.9525 240.705C74.2362 257.959 84.1199 263.052 91.3128 264.285C92.5886 264.505 93.8791 264.608 95.1695 264.608C102.553 264.608 109.988 261.122 114.9 255.156C123.457 244.756 128.714 221.448 122.291 201.934C116.125 183.22 102.04 171.353 88.8345 173.752ZM104.826 246.848C102.494 249.681 98.0877 252.191 93.5198 251.405C88.1673 250.488 83.4454 245.101 80.2192 236.236C74.2508 219.841 76.7878 203.431 81.9496 194.441C83.7533 191.3 86.8108 187.395 91.1368 186.618C91.4448 186.566 91.7674 186.537 92.1047 186.537C97.0172 186.537 105.361 192.313 109.878 206.036C114.68 220.626 111.066 239.26 104.811 246.855L104.826 246.848Z" fill="white"/>
<path d="M182.628 174.729C179.409 175 176.879 177.517 176.667 180.739C176.124 185.223 168.506 211.797 159.509 218.395C157.867 219.606 157.016 219.445 156.701 219.386C151.569 218.424 149.31 199.512 152.045 180.475C152.558 176.908 150.088 173.591 146.517 173.077C142.953 172.549 139.639 175.037 139.126 178.603C139.06 179.066 137.484 190.14 137.96 201.802C138.708 220.098 144.207 230.335 154.304 232.229C157.5 232.831 162.428 232.677 167.743 228.552C172.48 224.875 176.52 218.637 179.805 211.878C179.856 217.14 179.644 222.879 179.028 228.875C176.505 247.538 170.28 255.552 165.294 256.822C162.134 257.636 158.666 255.948 156.012 252.323C153.878 249.409 149.794 248.785 146.883 250.914C143.98 253.049 143.349 257.137 145.483 260.043C150.205 266.487 156.892 270.083 163.711 270.083C165.316 270.083 166.922 269.885 168.521 269.474C175.574 267.676 187.995 260.22 191.984 230.504C191.991 230.438 191.998 230.38 192.006 230.313C194.887 202.638 189.755 180.68 189.535 179.763C188.787 176.622 185.839 174.457 182.642 174.707L182.628 174.729Z" fill="white"/>
<path d="M275.622 206.506C269.653 177.752 252.745 170.083 243.705 170.083C235.427 170.083 223.057 176.072 211.113 204.598C200.929 228.941 210.791 260.557 211.216 261.893C212.308 265.327 215.974 267.221 219.413 266.135C222.845 265.041 224.744 261.372 223.659 257.93C223.578 257.673 216.194 233.843 221.488 214.571H263.809C266.64 232.691 263.487 244.272 260.143 256.44L259.667 258.187C258.714 261.665 260.767 265.261 264.242 266.215C264.821 266.377 265.401 266.45 265.965 266.45C268.832 266.45 271.464 264.542 272.256 261.636L272.733 259.904C276.648 245.652 280.695 230.923 275.629 206.513L275.622 206.506ZM243.705 183.154C246.792 183.154 255.568 186.75 260.737 201.501H226.936C234.224 187.263 240.706 183.154 243.705 183.154Z" fill="white"/>
<path d="M159.519 95.1767C162.02 95.9221 164.842 95.3181 166.545 93.3391C170.184 89.1113 168.082 83.3285 163.46 81.9535C160.001 80.6813 154.421 83.2386 150.043 84.4915C149.503 84.6457 149.31 85.2818 149.683 85.7123C152.66 89.1562 155.925 94.3479 159.519 95.1767Z" fill="white"/>
<path d="M137.925 101.737C138.594 104.262 140.58 106.35 143.158 106.774C148.668 107.674 152.505 102.868 151.271 98.2095C150.551 94.592 145.46 91.1738 142.11 88.0897C141.693 87.7106 141.056 87.8776 140.883 88.4173C139.494 92.7544 136.762 98.2416 137.925 101.737Z" fill="white"/>
<path d="M148.95 64.7531C150.892 63.0054 153.701 62.3436 156.086 63.4038C161.184 65.6655 161.769 71.7887 158.182 75.0078C155.598 77.6422 149.465 77.7193 144.971 78.4646C144.418 78.5546 143.968 78.0662 144.123 77.5201C145.338 73.1316 146.058 67.0469 148.944 64.7531H148.95Z" fill="white"/>
<path d="M134.795 86.085L123.783 122.985C123.532 123.821 122.934 124.508 122.137 124.874C121.359 125.228 120.504 125.234 119.733 124.887C110.411 120.691 102.581 113.399 97.6955 104.365C96.7634 102.649 95.9341 100.857 95.2269 99.0383C94.9055 98.203 94.9505 97.3099 95.3619 96.526C95.7669 95.7486 96.4612 95.2089 97.3162 95.0097L134.788 86.085H134.795Z" fill="white"/>
<path d="M133.4 80.2573L95.9148 89.182C95.0662 89.3811 94.1984 89.2141 93.4784 88.7065C92.7584 88.1925 92.3148 87.4279 92.2248 86.5476C91.6269 80.4757 92.2248 74.4103 93.9798 68.5119C95.7412 62.6135 98.5698 57.2162 102.395 52.4615C102.954 51.774 103.745 51.3757 104.625 51.3371C104.966 51.3243 105.294 51.3692 105.609 51.4592C106.104 51.607 106.554 51.8833 106.92 52.2688V52.2816H106.933L133.4 80.2573Z" fill="white"/>
<path d="M137.758 76.1387L111.292 48.163C110.688 47.5269 110.405 46.6981 110.488 45.8242C110.572 44.9376 111.022 44.1665 111.748 43.6461C113.195 42.6052 114.725 41.6478 116.287 40.7804L116.737 40.5362C125.769 35.6466 136.312 33.8347 146.418 35.4217C147.247 35.5567 147.967 36.0193 148.423 36.7453C148.893 37.4907 149.015 38.3902 148.764 39.2255L137.765 76.1322L137.758 76.1387Z" fill="white"/>
<path d="M165.6 35.6273C172.916 34.0724 178.265 30.7056 181.537 25.5846C187.727 15.8953 183.767 3.76444 183.587 3.25684C183.195 2.08102 182.212 1.20075 180.997 0.930893C171.624 -1.12519 163.968 0.230538 158.227 4.94026C153.27 9.00103 150.75 14.8287 149.471 19.8597C146.514 12.1944 149.291 6.45662 149.471 6.10323C150.365 4.38769 149.696 2.26092 147.98 1.35496C146.25 0.448997 144.11 1.1108 143.203 2.8392C142.895 3.4239 135.83 17.2768 149.034 32.3633C149.49 32.8838 151.438 36.3341 152.737 37.1694C161.756 42.9971 168.429 50.6817 172.267 59.7478C176.625 70.0539 177.159 81.825 173.752 92.9022C168.101 111.272 151.355 128.003 125.827 127.599C124.985 127.586 122.895 128.916 122.034 129.77C121.565 130.239 121.089 130.702 120.568 131.113C113.587 136.594 110.456 136.119 109.383 135.611C106.406 134.191 105.525 127.573 105.525 123.949C105.525 123.686 105.525 123.441 105.538 123.217C105.609 121.27 104.092 119.631 102.144 119.554C100.19 119.458 98.5441 120.993 98.4669 122.947C98.4091 124.476 98.1134 138.04 106.316 141.978C107.73 142.659 109.248 143 110.868 143C114.93 143 119.643 140.854 125.12 136.523C125.319 136.562 125.525 136.581 125.737 136.581C137.848 136.742 149.13 133.574 158.799 127.226C169.959 119.895 178.322 108.638 182.353 95.543C188.28 76.28 184.59 52.3844 165.607 35.6273H165.6ZM162.483 21.7359C163.286 19.8405 165.369 18.4719 168.647 17.6816C170.544 17.2189 171.707 15.3042 171.257 13.4152C170.949 12.143 169.991 11.1985 168.827 10.8515C168.249 10.6844 167.619 10.6523 166.989 10.8065C163.73 11.5968 161.113 12.8626 159.153 14.591C160.104 13.0232 161.274 11.5711 162.733 10.3889C166.314 7.45897 171.232 6.46947 177.371 7.43326C178.014 10.5624 178.734 16.872 175.558 21.813C173.199 25.4818 168.982 27.872 163.016 28.9386C162.219 26.8697 161.538 23.9591 162.483 21.7359Z" fill="white"/>
</svg>
