<svg width="93" height="143" viewBox="0 0 93 143" fill="none" xmlns="http://www.w3.org/2000/svg">
<path d="M67.5189 95.1767C70.0196 95.9221 72.8418 95.3181 74.5453 93.3391C78.1839 89.1113 76.0818 83.3285 71.4597 81.9535C68.0011 80.6813 62.4211 83.2386 58.0432 84.4915C57.5032 84.6457 57.3104 85.2818 57.6833 85.7123C60.6597 89.1562 63.9254 94.3479 67.5189 95.1767Z" fill="white"/>
<path d="M45.9254 101.737C46.594 104.262 48.5804 106.35 51.1583 106.774C56.6675 107.674 60.5054 102.868 59.2711 98.2095C58.5511 94.592 53.4597 91.1738 50.1104 88.0897C49.6926 87.7106 49.0561 87.8776 48.8826 88.4173C47.494 92.7544 44.7618 98.2416 45.9254 101.737Z" fill="white"/>
<path d="M56.9504 64.7531C58.8918 63.0054 61.7011 62.3436 64.0861 63.4038C69.1839 65.6655 69.7689 71.7888 66.1818 75.0078C63.5975 77.6422 57.4647 77.7193 52.9711 78.4646C52.4183 78.5546 51.9683 78.0662 52.1225 77.5201C53.3375 73.1316 54.0576 67.0469 56.944 64.7531H56.9504Z" fill="white"/>
<path d="M42.7947 86.085L31.7826 122.985C31.5319 123.821 30.934 124.508 30.1369 124.874C29.359 125.228 28.504 125.234 27.7326 124.887C18.4112 120.691 10.5812 113.399 5.69551 104.365C4.76336 102.649 3.93408 100.857 3.22694 99.0383C2.90551 98.203 2.95051 97.3099 3.36194 96.526C3.76694 95.7486 4.46123 95.2089 5.31623 95.0097L42.7883 86.085H42.7947Z" fill="white"/>
<path d="M41.3997 80.2573L3.9148 89.182C3.06623 89.3811 2.19837 89.2141 1.47837 88.7065C0.758374 88.1925 0.314802 87.4279 0.224802 86.5476C-0.373054 80.4757 0.224803 74.4103 1.9798 68.5119C3.74122 62.6135 6.56979 57.2162 10.3948 52.4615C10.9541 51.774 11.7448 51.3757 12.6255 51.3371C12.9662 51.3243 13.2941 51.3692 13.6091 51.4592C14.1041 51.607 14.5541 51.8833 14.9205 52.2688V52.2816H14.9333L41.3997 80.2573Z" fill="white"/>
<path d="M45.7583 76.1387L19.2919 48.163C18.6876 47.5269 18.4048 46.6981 18.4883 45.8242C18.5719 44.9376 19.0219 44.1665 19.7483 43.6461C21.1948 42.6052 22.7248 41.6478 24.2869 40.7804L24.7369 40.5362C33.769 35.6466 44.3119 33.8347 54.4175 35.4217C55.2468 35.5567 55.9668 36.0193 56.4233 36.7453C56.8925 37.4907 57.0147 38.3902 56.764 39.2255L45.7647 76.1322L45.7583 76.1387Z" fill="white"/>
<path d="M73.6004 35.6273C80.9161 34.0724 86.2646 30.7056 89.5367 25.5846C95.7274 15.8953 91.7675 3.76444 91.5875 3.25684C91.1953 2.08102 90.2117 1.20075 88.9967 0.930893C79.6239 -1.12519 71.9675 0.230538 66.2268 4.94026C61.2704 9.00103 58.7504 14.8287 57.4711 19.8597C54.514 12.1944 57.2911 6.45662 57.4711 6.10323C58.3647 4.38769 57.6961 2.26092 55.9797 1.35496C54.2504 0.448997 52.1097 1.1108 51.2033 2.8392C50.8947 3.4239 43.8297 17.2768 57.034 32.3633C57.4904 32.8838 59.4383 36.3341 60.7368 37.1694C69.7561 42.9971 76.4289 50.6817 80.2668 59.7478C84.6253 70.0539 85.1589 81.825 81.7518 92.9022C76.1011 111.272 59.3547 128.003 33.8269 127.599C32.9847 127.586 30.8954 128.916 30.034 129.77C29.5647 130.239 29.089 130.702 28.5683 131.113C21.5869 136.594 18.4562 136.119 17.3826 135.611C14.4062 134.191 13.5255 127.573 13.5255 123.949C13.5255 123.686 13.5255 123.441 13.5383 123.217C13.6091 121.27 12.0919 119.631 10.1441 119.554C8.18979 119.458 6.54408 120.993 6.46694 122.947C6.40908 124.476 6.11336 138.04 14.3162 141.978C15.7305 142.659 17.2476 143 18.8676 143C22.9305 143 27.6426 140.854 33.1197 136.523C33.319 136.562 33.5247 136.581 33.7369 136.581C45.8483 136.742 57.1304 133.574 66.799 127.226C77.9589 119.895 86.3225 108.638 90.3532 95.543C96.2803 76.28 92.5903 52.3844 73.6068 35.6273H73.6004ZM70.4825 21.7359C71.2861 19.8405 73.3689 18.4719 76.6475 17.6816C78.5439 17.2189 79.7075 15.3042 79.2575 13.4152C78.9489 12.143 77.9911 11.1985 76.8275 10.8515C76.2489 10.6844 75.6189 10.6523 74.9889 10.8065C71.7296 11.5968 69.1132 12.8626 67.1525 14.591C68.1039 13.0232 69.2739 11.5711 70.7332 10.3889C74.3139 7.45897 79.2318 6.46947 85.371 7.43326C86.0139 10.5624 86.7339 16.872 83.5582 21.813C81.1989 25.4818 76.9818 27.872 71.0161 28.9386C70.2189 26.8697 69.5375 23.9591 70.4825 21.7359Z" fill="white"/>
</svg>
