<svg width="278" height="145" viewBox="0 0 278 145" fill="none" xmlns="http://www.w3.org/2000/svg">
<path d="M14.9054 143.593V122.796L10.6321 143.593H8.62873L4.13659 122.796V143.593H0V113.501H5.96216L9.65434 131.815L13.0388 113.501H19.0489V143.593H14.9054Z" fill="#EEAD4C"/>
<path d="M32.1219 143.593H27.6708V131.413L22.1052 113.501H26.7341L29.8929 125.32L32.9629 113.501H37.455L32.115 131.413V143.593H32.1219Z" fill="#EEAD4C"/>
<path d="M59.7995 143.593H47.964V113.501H52.4152V139.399H59.7995V143.593Z" fill="#EEAD4C"/>
<path d="M74.4793 117.695H66.8283V125.909H72.346V130.103H66.8283V139.399H74.4793V143.593H62.3772V113.501H74.4793V117.695Z" fill="#EEAD4C"/>
<path d="M92.7692 143.593V122.796L88.4959 143.593H86.4926L82.0004 122.796V143.593H77.8638V113.501H83.826L87.5182 131.815L90.9026 113.501H96.9127V143.593H92.7692Z" fill="#EEAD4C"/>
<path d="M114.656 133.805C114.656 138.269 114.3 139.898 112.878 141.659C111.675 143.149 109.76 144.05 107.716 144.05C105.671 144.05 103.709 143.149 102.512 141.659C101.09 139.898 100.735 138.227 100.735 133.805V123.296C100.735 118.873 101.09 117.202 102.512 115.449C103.716 113.958 105.63 113.057 107.716 113.057C109.801 113.057 111.722 113.958 112.878 115.449C114.3 117.209 114.656 118.831 114.656 123.296V133.805ZM105.179 133.305C105.179 136.148 105.268 137.499 105.494 138.13C105.849 139.211 106.649 139.842 107.716 139.842C108.782 139.842 109.671 139.121 109.986 137.86C110.116 137.271 110.211 135.829 110.211 133.305V123.788C110.211 120.856 110.122 119.594 109.897 118.963C109.541 117.882 108.741 117.251 107.716 117.251C106.56 117.251 105.712 117.972 105.405 119.233C105.268 119.823 105.179 121.355 105.179 123.788V133.305Z" fill="#EEAD4C"/>
<path d="M129.117 143.593L122.662 125.008V143.593H118.526V113.501H123.018L129.117 131.364V113.501H133.253V143.593H129.117Z" fill="#EEAD4C"/>
<path d="M142.108 136.959L141.082 143.593H136.679L141.526 113.501H147.311L152.473 143.593H147.892L146.866 136.959H142.108ZM144.425 120.765L142.737 132.765H146.21L144.432 120.765H144.425Z" fill="#EEAD4C"/>
<path d="M155.502 113.501H161.82C166.934 113.501 169.341 116.204 169.341 121.985V135.115C169.341 140.889 166.941 143.599 161.82 143.599H155.502V113.501ZM161.334 139.399C162.579 139.399 163.556 138.99 164.138 138.227C164.719 137.416 164.896 136.515 164.896 134.255V122.838C164.896 120.585 164.719 119.677 164.138 118.866C163.556 118.097 162.579 117.695 161.334 117.695H159.953V139.392H161.334V139.399Z" fill="#EEAD4C"/>
<path d="M185.313 117.695H177.662V125.909H183.18V130.103H177.662V139.399H185.313V143.593H173.211V113.501H185.313V117.695Z" fill="#EEAD4C"/>
<path d="M205.38 120.897C205.114 118.187 204.444 117.244 202.803 117.244C201.292 117.244 200.314 118.415 200.314 120.218C200.314 122.29 201.114 123.51 204.273 126.491C208.902 130.775 210.016 132.675 210.016 136.328C210.016 140.931 207.165 144.043 202.987 144.043C198.81 144.043 195.733 140.841 195.603 135.926L199.829 135.156C199.958 138.317 200.984 139.849 202.987 139.849C204.635 139.849 205.702 138.588 205.702 136.557C205.702 135.427 205.298 134.345 204.546 133.305C203.835 132.356 203.569 132.044 201.073 129.742C197.333 126.221 196 123.829 196 120.495C196 116.031 198.803 113.05 202.987 113.05C206.905 113.05 209.175 115.483 209.709 120.266L205.394 120.897H205.38Z" fill="#EEAD4C"/>
<path d="M221.312 143.593H216.86V117.695H212.143V113.501H226.118V117.695H221.312V143.593Z" fill="#EEAD4C"/>
<path d="M232.08 136.959L231.055 143.593H226.651L231.499 113.501H237.284L242.446 143.593H237.865L236.839 136.959H232.08ZM234.391 120.765L232.703 132.765H236.176L234.398 120.765H234.391Z" fill="#EEAD4C"/>
<path d="M256.059 143.593L249.605 125.008V143.593H245.468V113.501H249.96L256.059 131.364V113.501H260.196V143.593H256.059Z" fill="#EEAD4C"/>
<path d="M264.161 113.501H270.479C275.593 113.501 278 116.204 278 121.985V135.115C278 140.889 275.6 143.599 270.479 143.599H264.161V113.501ZM269.987 139.399C271.231 139.399 272.209 138.99 272.79 138.227C273.371 137.416 273.549 136.515 273.549 134.255V122.838C273.549 120.585 273.371 119.677 272.79 118.866C272.209 118.097 271.231 117.695 269.987 117.695H268.605V139.392H269.987V139.399Z" fill="#EEAD4C"/>
<path d="M47.1438 6.15001C43.5803 5.58491 40.2442 8.02878 39.687 11.5882C39.6283 11.9478 34.2098 44.8041 13.4965 59.1443C11.876 31.7261 15.7694 8.38103 15.8281 8.06546C16.4366 4.51343 14.0537 1.13019 10.5049 0.521057C6.94882 -0.0880725 3.57601 2.29707 2.96744 5.84911C2.64483 7.72053 -4.81932 52.1723 5.23308 92.9106C5.9663 95.8902 8.63522 97.8791 11.5681 97.8791C12.0887 97.8791 12.6092 97.8204 13.1372 97.6883C16.6346 96.8223 18.7756 93.2776 17.9104 89.7769C17.1332 86.6212 16.4806 83.4287 15.9161 80.2216C21.2246 83.0031 28.1828 85.5864 35.7789 85.5864C38.6311 85.5864 41.564 85.2268 44.5335 84.3755C48.0017 83.3847 50.0107 79.7666 49.0208 76.2953C48.031 72.824 44.4162 70.8058 40.9481 71.8112C34.3051 73.7047 27.4496 71.4883 22.3757 68.883C46.5279 50.9687 52.335 15.2796 52.5989 13.5917C53.1488 10.0249 50.7146 6.69309 47.1584 6.13533L47.1438 6.15001Z" fill="#EEAD4C"/>
<path d="M88.8345 3.66946C81.495 4.99047 75.204 9.89285 70.6361 17.8409C62.4974 32.0123 61.4415 52.7301 67.9525 70.6223C74.2362 87.8761 84.1199 92.9693 91.3128 94.2023C92.5886 94.4224 93.8791 94.5252 95.1695 94.5252C102.553 94.5252 109.988 91.0392 114.9 85.0727C123.457 74.6734 128.714 51.365 122.291 31.8509C116.125 13.1367 102.04 1.26964 88.8345 3.66946ZM104.826 76.765C102.494 79.5978 98.0877 82.1077 93.5198 81.3225C88.1673 80.4051 83.4454 75.0183 80.2192 66.1529C74.2508 49.7578 76.7878 33.348 81.9496 24.3578C83.7533 21.2168 86.8108 17.3125 91.1368 16.5346C91.4448 16.4832 91.7674 16.4538 92.1047 16.4538C97.0172 16.4538 105.361 22.2296 109.878 35.9533C114.68 50.5431 111.066 69.1766 104.811 76.7724L104.826 76.765Z" fill="#EEAD4C"/>
<path d="M182.628 4.64554C179.409 4.91708 176.879 7.43432 176.667 10.6561C176.124 15.1402 168.506 41.7144 159.509 48.3121C157.867 49.523 157.016 49.3615 156.701 49.3028C151.569 48.3414 149.31 29.429 152.045 10.3919C152.558 6.82518 150.088 3.508 146.517 2.99428C142.953 2.46588 139.639 4.95377 139.126 8.52048C139.06 8.98283 137.484 20.0572 137.96 31.7188C138.708 50.0147 144.207 60.2525 154.304 62.1459C157.5 62.7477 162.428 62.5936 167.743 58.4691C172.48 54.7923 176.52 48.5542 179.805 41.7951C179.856 47.0571 179.644 52.7961 179.028 58.792C176.505 77.4549 170.28 85.469 165.294 86.7386C162.134 87.5532 158.666 85.8653 156.012 82.2398C153.878 79.3263 149.794 78.7025 146.883 80.8308C143.98 82.9664 143.349 87.0542 145.483 89.9604C150.205 96.404 156.892 100 163.711 100C165.316 100 166.922 99.8018 168.521 99.3909C175.574 97.5928 187.995 90.1365 191.984 60.4213C191.991 60.3552 191.998 60.2965 192.006 60.2304C194.887 32.5554 189.755 10.5974 189.535 9.68002C188.787 6.53897 185.839 4.374 182.642 4.62352L182.628 4.64554Z" fill="#EEAD4C"/>
<path d="M275.622 36.423C269.653 7.66916 252.745 0 243.705 0C235.427 0 223.057 5.98856 211.113 34.5149C200.929 58.8581 210.791 90.4741 211.216 91.8098C212.308 95.2444 215.974 97.1378 219.413 96.0517C222.845 94.9582 224.744 91.2887 223.659 87.8468C223.578 87.5899 216.194 63.7605 221.488 44.4885H263.809C266.64 62.6083 263.487 74.189 260.143 86.357L259.667 88.1036C258.714 91.5823 260.767 95.1784 264.242 96.1324C264.821 96.2939 265.401 96.3672 265.965 96.3672C268.832 96.3672 271.464 94.4591 272.256 91.5529L272.733 89.821C276.648 75.5688 280.695 60.8396 275.629 36.4304L275.622 36.423ZM243.705 13.0706C246.792 13.0706 255.568 16.6667 260.737 31.4179H226.936C234.224 17.1804 240.706 13.0706 243.705 13.0706Z" fill="#EEAD4C"/>
</svg>
