<svg width="278" height="100" viewBox="0 0 278 100" fill="none" xmlns="http://www.w3.org/2000/svg">
<path d="M47.1438 6.15001C43.5803 5.58491 40.2442 8.02878 39.687 11.5882C39.6283 11.9478 34.2098 44.8041 13.4965 59.1443C11.876 31.7261 15.7694 8.38103 15.8281 8.06546C16.4366 4.51343 14.0537 1.13019 10.5049 0.521057C6.94882 -0.0880725 3.57601 2.29707 2.96744 5.84911C2.64483 7.72053 -4.81932 52.1723 5.23308 92.9106C5.9663 95.8902 8.63522 97.8791 11.5681 97.8791C12.0887 97.8791 12.6092 97.8204 13.1372 97.6883C16.6346 96.8223 18.7756 93.2776 17.9104 89.7769C17.1332 86.6212 16.4806 83.4287 15.9161 80.2216C21.2246 83.0031 28.1828 85.5864 35.7789 85.5864C38.6311 85.5864 41.564 85.2268 44.5335 84.3755C48.0017 83.3847 50.0107 79.7666 49.0208 76.2953C48.031 72.824 44.4162 70.8058 40.9481 71.8112C34.3051 73.7047 27.4496 71.4883 22.3757 68.883C46.5279 50.9687 52.335 15.2796 52.5989 13.5917C53.1488 10.0249 50.7146 6.69309 47.1584 6.13533L47.1438 6.15001Z" fill="white"/>
<path d="M88.8345 3.66946C81.495 4.99047 75.204 9.89285 70.6361 17.8409C62.4974 32.0123 61.4415 52.7301 67.9525 70.6223C74.2362 87.8761 84.1199 92.9693 91.3128 94.2023C92.5886 94.4224 93.8791 94.5252 95.1695 94.5252C102.553 94.5252 109.988 91.0392 114.9 85.0727C123.457 74.6734 128.714 51.365 122.291 31.8509C116.125 13.1367 102.04 1.26964 88.8345 3.66946ZM104.826 76.765C102.494 79.5978 98.0877 82.1077 93.5198 81.3225C88.1673 80.4051 83.4454 75.0183 80.2192 66.1529C74.2508 49.7578 76.7878 33.348 81.9496 24.3578C83.7533 21.2168 86.8108 17.3125 91.1368 16.5346C91.4448 16.4832 91.7674 16.4538 92.1047 16.4538C97.0172 16.4538 105.361 22.2296 109.878 35.9533C114.68 50.5431 111.066 69.1766 104.811 76.7724L104.826 76.765Z" fill="white"/>
<path d="M182.628 4.64554C179.409 4.91708 176.879 7.43432 176.667 10.6561C176.124 15.1402 168.506 41.7144 159.509 48.3121C157.867 49.523 157.016 49.3615 156.701 49.3028C151.569 48.3414 149.31 29.429 152.045 10.3919C152.558 6.82518 150.088 3.508 146.517 2.99428C142.953 2.46588 139.639 4.95377 139.126 8.52048C139.06 8.98283 137.484 20.0572 137.96 31.7188C138.708 50.0147 144.207 60.2525 154.304 62.1459C157.5 62.7477 162.428 62.5936 167.743 58.4691C172.48 54.7923 176.52 48.5542 179.805 41.7951C179.856 47.0571 179.644 52.7961 179.028 58.792C176.505 77.4549 170.28 85.469 165.294 86.7386C162.134 87.5532 158.666 85.8653 156.012 82.2398C153.878 79.3263 149.794 78.7025 146.883 80.8308C143.98 82.9664 143.349 87.0542 145.483 89.9604C150.205 96.404 156.892 100 163.711 100C165.316 100 166.922 99.8018 168.521 99.3909C175.574 97.5928 187.995 90.1365 191.984 60.4213C191.991 60.3552 191.998 60.2965 192.006 60.2304C194.887 32.5554 189.755 10.5974 189.535 9.68002C188.787 6.53897 185.839 4.374 182.642 4.62352L182.628 4.64554Z" fill="white"/>
<path d="M275.622 36.423C269.653 7.66916 252.745 0 243.705 0C235.427 0 223.057 5.98856 211.113 34.5149C200.929 58.8581 210.791 90.4741 211.216 91.8098C212.308 95.2444 215.974 97.1378 219.413 96.0517C222.845 94.9582 224.744 91.2887 223.659 87.8468C223.578 87.5899 216.194 63.7605 221.488 44.4885H263.809C266.64 62.6083 263.487 74.189 260.143 86.357L259.667 88.1036C258.714 91.5823 260.767 95.1784 264.242 96.1324C264.821 96.2939 265.401 96.3672 265.965 96.3672C268.832 96.3672 271.464 94.4591 272.256 91.5529L272.733 89.821C276.648 75.5688 280.695 60.8396 275.629 36.4304L275.622 36.423ZM243.705 13.0706C246.792 13.0706 255.568 16.6667 260.737 31.4179H226.936C234.224 17.1804 240.706 13.0706 243.705 13.0706Z" fill="white"/>
</svg>
